<svg xmlns="http://www.w3.org/2000/svg" viewBox="0 0 39 35"><g data-name="Camada 2"><path d="M37.46 13.67l-1.29-2.14L34.87 7a1.21 1.21 0 000-.14L31.45.41a.76.76 0 00-.67-.41h-3.07a.76.76 0 00-.66.39.8.8 0 00-.05.43.13.13 0 000 .06v5.23l-2 2.25a13.93 13.93 0 01-3.68 2.88.77.77 0 00.36 1.44.77.77 0 00.36-.09A15.29 15.29 0 0026 9.39l2.25-2.48h.55v2.63l-1.79 3a15.86 15.86 0 01-6 5.78A15.79 15.79 0 0111.08 20l-2.76-.4a6.68 6.68 0 00-.77-.07A13.54 13.54 0 013.71 16l.85-1.11a.76.76 0 00-.14-1.07.74.74 0 00-1.06.14l-.55.71c-.44-.72-.8-1.4-1.11-2l.89-.84 1.59.58a.85.85 0 00.39 0 5 5 0 012.6.24l2.3.84a15.22 15.22 0 006.45.88.77.77 0 00-.12-1.53 13.51 13.51 0 01-5.8-.79l-2.3-.84a6.62 6.62 0 00-3.18-.34l-1.85-.67a.75.75 0 00-.78.16L.24 11.92a.76.76 0 00-.15.91c.06.13.13.26.2.39a19.5 19.5 0 005 6.56 5.34 5.34 0 00-.53.16l-2.27-.34a.74.74 0 00-.74.31L.25 22a.75.75 0 000 .92 17.75 17.75 0 005 4.22l-1 1.93a.78.78 0 00.17.91 17.53 17.53 0 003.42 2.43l.16.09a17.87 17.87 0 003.43 1.39l.69.2a23.4 23.4 0 006.47.91 23.62 23.62 0 009.53-2A20.89 20.89 0 0037 25.53l.2-.29a10.82 10.82 0 00.26-11.57zm-3-2.55l-2.1.09V8h1.2zm-4.14-9.59l2.57 5H32l-3-4.95zm.53 5.93v1.08h-.5V6.62zm-2-3.26v1.18h-.36V3.51l.36.6zM5.16 25.32l.44-.88a.76.76 0 10-1.36-.68l-.33.66a16.39 16.39 0 01-2.08-2l.89-1.24 2 .3a.74.74 0 00.39 0 6 6 0 013-.33l2.76.43a17.31 17.31 0 0017.47-8.28l1.94-3.23h.57v1.79l-1.54 3.75a15.86 15.86 0 01-14.65 9.86h-2.79a7.48 7.48 0 00-3.5.88H7a15.48 15.48 0 01-1.84-1.03zm30.76-.93l-.2.29a19.45 19.45 0 01-8.24 6.91 22.05 22.05 0 01-15 1l-.69-.2a14.62 14.62 0 01-2.62-1l.36-1a.76.76 0 10-1.44-.5l-.27.8a17.27 17.27 0 01-2-1.42l.69-1.37h2a.75.75 0 00.38-.1 5.89 5.89 0 012.98-.8h2.79a17.36 17.36 0 0016.05-10.81l1.41-3.44 2.93-.13 1.11 1.85a9.27 9.27 0 01-.24 9.92zM19 13.76a.91.91 0 00.23 0 .76.76 0 10-.45-1.46.76.76 0 00.22 1.46zM33.2 23v.06a.76.76 0 00.2 1.06.74.74 0 00.42.13.77.77 0 00.63-.33v-.07a.76.76 0 00-.2-1.06.77.77 0 00-1.05.21zm-2 2.38a16.25 16.25 0 01-5 3.44 19 19 0 01-7.16 1.62.77.77 0 000 1.53 20.6 20.6 0 007.73-1.75 17.93 17.93 0 005.46-3.76.76.76 0 00-1.08-1.08z" data-name="Camada 1"/></g></svg>