<svg xmlns="http://www.w3.org/2000/svg" viewBox="0 0 74.83 69.29"><g data-name="Camada 2"><path d="M28 49.63a32.33 32.33 0 009-1.4 29.68 29.68 0 008.33-4 30.55 30.55 0 009.17-10.17l.46-.92a47.35 47.35 0 002.06-5c.14-.4.26-.88.39-1.39a12.42 12.42 0 012.25-5l-.61-5.86a7.87 7.87 0 01.41-3.44 5.69 5.69 0 012.9-3.34 3.12 3.12 0 011.34-.3h.07c.11 0 .71 0 1.56.11.33-2 .7-4.28.74-4.5C65.29 1.73 60 .08 59.78 0a3.41 3.41 0 00-2.33 3l-1.21 7.38h-.06a3.11 3.11 0 00-.47.21 8 8 0 00-3.09 3.54c-.28.5-.57 1-.89 1.47a49.06 49.06 0 01-3.54 4.54c-.27.31-.51.59-.76.86a33.61 33.61 0 01-12.78 8.13 34.31 34.31 0 01-22.46 0c-.47-.16-.95-.33-1.41-.51s-1.14-.46-1.78-.69a13.16 13.16 0 00-4.1-.83 5.11 5.11 0 00-2.53.6 4.24 4.24 0 00-1.63 1.66c-1.58 2.86-.36 5.18 1.19 7.27a26.19 26.19 0 004.79 4.95A37.86 37.86 0 0018 47.69a37.29 37.29 0 0010 1.94zm46.34-23.26a5.69 5.69 0 00-2.53-3.82l-.83-8c-1.08-1.76-4.32-2.33-6.09-2.51h-.08C64.14 12 63.7 12 63.7 12c-1.21.56-1.61 2.3-1.48 3.54L63 23a3.61 3.61 0 00-.39.33 8.12 8.12 0 00-2.06 4.26c-.14.55-.29 1.12-.47 1.65a51 51 0 01-2.21 5.32c-.18.37-.34.7-.51 1a34.51 34.51 0 01-3.37 5c0 .06-.11.12-.16.19l-.17.2a33.59 33.59 0 01-6.46 5.89 34.14 34.14 0 01-19.57 6q-1 0-2.07-.06-.75 0-1.5-.12c-.54 0-1.22-.12-1.93-.16h-1.26c-1.81 0-3.91.28-5.22 1.6a4.23 4.23 0 00-1.11 2c-.78 3.19 1 5.12 3.08 6.73a26 26 0 005.94 3.5A37.8 37.8 0 0036 69.23c.72 0 1.45.06 2.17.06a36.42 36.42 0 0023-8.1 37.16 37.16 0 0013.17-34.82z" data-name="Camada 1"/></g></svg>