<svg xmlns="http://www.w3.org/2000/svg" viewBox="0 0 54.61 59.04"><g data-name="Camada 2"><path d="M54.58 13.92a1.52 1.52 0 00-.15-.66 1.45 1.45 0 00-1-.8L27.92.15a1.53 1.53 0 00-1.32 0L.85 12.57a1.52 1.52 0 00-.85 1.3V45.1a1.49 1.49 0 00.85 1.35L26.6 58.87a.34.34 0 01.11 0h.46a.44.44 0 00.16 0h.39l26.03-12.46a1.5 1.5 0 00.86-1.34V14s-.03-.07-.03-.08zM27.25 3.15l22.34 10.78-8.23 4L19 7.13zm0 21.56L4.92 13.93l10.67-5.15 22.33 10.78zM3 16.34l22.75 11v27.79L3 44.16zm25.76 38.79V27.31l10.67-5.16v7.28a1.51 1.51 0 003 0V20.7l9.14-4.41v27.82z" data-name="Camada 1"/></g></svg>