<svg xmlns="http://www.w3.org/2000/svg" viewBox="0 0 36 36"><g data-name="Camada 2"><path d="M17.91 3a14.77 14.77 0 019.66 3.57h-1.38a1.5 1.5 0 000 3h4.93a1.5 1.5 0 001.5-1.5V3.13a1.5 1.5 0 10-3 0v1.25A17.74 17.74 0 0017.91 0 18 18 0 000 18a1.5 1.5 0 003 0A15 15 0 0117.91 3zM34.5 16.53A1.5 1.5 0 0033 18a15 15 0 01-14.91 15 14.79 14.79 0 01-9.57-3.49H10a1.5 1.5 0 100-3H4.71l-.15.05h-.13l-.12.06-.14.09-.07.06L4 27l-.09.11-.09.12-.07.13-.06.13v.14a.7.7 0 000 .14.88.88 0 000 .16V33a1.5 1.5 0 003 0v-1.2a17.7 17.7 0 0011.4 4.2A18 18 0 0036 18a1.5 1.5 0 00-1.5-1.47z" data-name="Camada 1"/></g></svg>