<svg xmlns="http://www.w3.org/2000/svg" viewBox="0 0 56.64 55.38"><g data-name="Camada 2"><path d="M11.43 22.3c0 1.92-.15 3.71 1.4 4.2 1 .31 2.79.08 4.38.08H44c2.56 0 4.82.42 5.6-1.2.67-1.37.27-4.22.27-5.91V7.29c0-3.17.74-7.14-2.28-7.29h-34c-3 .12-2.19 4.27-2.19 7.37zm2.19-19.81c0-.12 0-.25.09-.26h33.91v22.21h-34zm23.31 2.23c-1.54-.67-3.91-.26-5.61-.26a53.41 53.41 0 00-6.05.08 2.65 2.65 0 00-2.54 2.32C22.3 10.68 27.08 10 30.62 10c2.07 0 4.42.38 6.05-.09a2.79 2.79 0 00.26-5.19zM34 7.8h-3.12c-2.17 0-4.4.2-5.87-.25-.06-.46 0-.75.35-.86H34c.79 0 2.23-.22 2.36.43.13.88-1.36.68-2.36.68zm15.81 26.67c-.31-2.54-4.19-2.75-6.4-1.54-.35 0-.37-.58-.52-.77-1-1.38-3.94-1.14-5.7-.43a56.57 56.57 0 00-6.57 3.77c-.65.4-1.6 1.24-2.1 1.29a8.14 8.14 0 01-3.07-1c-1.1-.6-1.91-1.94-2.89-2.66A12.05 12.05 0 0015.29 31c-3.42 0-5.82 1.15-8.59 2.32-1.13.47-2.34 1.06-3.77 1.71-.74.34-3.27 1.07-2.89 2.49.32 1.19 1.88.42 3-.09 1.37-.63 1.85-.83 3.06-1.37a38.77 38.77 0 016.23-2.57 13.54 13.54 0 017.62.6c1.93 1 2.34 2.42 4 3.43 2.77 1.65 6.79 2 10.87 2.4 1.32.14 2.68.42 2.62 1.72-.07 1.65-2.42 1.54-4.82 1.54a49.84 49.84 0 01-10.25-.6c-1.28-.27-3-.83-3.06.6 0 1.07 1.63 1.37 2.89 1.63a57.85 57.85 0 0012.79.6 7.42 7.42 0 004.21-1.72c2-1.34 4.24-2.78 6.22-4.11 1.8-1.21 4-3.25 6.74-3.69 1.15-.18 2.16 0 2.28.94.14 1.1-1.49 2.2-2.28 2.75-6 4.18-12 8.05-18.22 11.75-1.37.81-2.5 1.77-4.21 1.88A9.15 9.15 0 0125 51.88c-2.86-1.39-5.1-2.61-8-4-1.4-.74-3.15-1.88-5-1.57a9.13 9.13 0 00-3.33 1.63c-.77.47-2.61 1.2-2.55 2.31.12 2.17 2.85.14 3.6-.34a7 7 0 012.71-1.46c1.49-.15 3.54 1.26 4.91 2 1.59.82 2.88 1.47 4.56 2.32 2.92 1.47 6.31 3.72 10.42 2.06a42.89 42.89 0 006.31-3.69c4.18-2.64 7.9-5.14 12.1-7.89 2.25-1.48 5.46-2.92 6-5.92v-.6c-.25-3.09-4.51-3.81-6.92-2.26zM37 36.87c-.47.32-1 .87-1.41 1-1.19.22-2.49-.32-3.85-.35 2.35-1.06 4.76-3.78 7.71-4.11.62-.07 1.66-.13 1.84.51A29.83 29.83 0 0137 36.87zm8.58-.08c-2 1.3-4.09 2.9-6 3.94a3.14 3.14 0 00-1.32-1.88c1.23-1 2.75-1.93 4.21-2.92 1.28-.86 3.17-2.15 5.17-1.2.28 1.12-1.29 1.57-2.04 2.06z" data-name="Camada 1"/></g></svg>