<svg xmlns="http://www.w3.org/2000/svg" viewBox="0 0 64.79 64.82"><g data-name="Camada 2"><path d="M35.18 64.82h-5.57a5 5 0 00-.84-.22A32.32 32.32 0 011.23 41.12C.69 39.19.4 37.18 0 35.2v-5.57c.16-.9.34-1.81.48-2.72C3.26 9.92 19.71-2.16 36.71.32a32.36 32.36 0 016.78 62.48 81.85 81.85 0 01-8.31 2.02zm-2.75-22.67c1.56 0 3.12.06 4.68 0a2 2 0 001.35-.79q2.43-4 4.68-8.09a1.89 1.89 0 000-1.56 230 230 0 00-4.74-8.21 1.81 1.81 0 00-1.26-.74c-3.16-.06-6.33-.06-9.49 0a1.89 1.89 0 00-1.35.78q-2.43 4-4.68 8.09a1.91 1.91 0 000 1.57c1.52 2.77 3.11 5.5 4.74 8.2a1.79 1.79 0 001.26.74c1.6.06 3.2.01 4.81.01zm24.46-23.6v-.32c-.18-.33-.37-.67-.57-1a28.33 28.33 0 00-18-12.53 1.22 1.22 0 00-1.6.69c-2.31 4.07-4.66 8.11-7 12.16-.16.28-.27.58-.46 1zM7.74 46.27c.29.52.47.89.69 1.23A28.35 28.35 0 0026.5 60.12a1.19 1.19 0 001.58-.72c2.32-4.06 4.67-8.1 7-12.16.15-.27.26-.57.44-1zm24.2 14.53c9.15-.19 16.43-3.55 22.2-10.22L46 36.47zM18.82 28.36L32.85 4a28.7 28.7 0 00-22.19 10.2zM8.15 18a5 5 0 00-.41.57 27.74 27.74 0 00-2.25 22.7c.26.8.7.9 1.4.9h14c.31 0 .63-.07 1.09-.12zm34.56 4.7l13.95 24.14c.23-.32.34-.45.42-.59a27.81 27.81 0 002.26-22.58 1.25 1.25 0 00-1.46-1H47.39z" data-name="Camada 1"/></g></svg>