<svg xmlns="http://www.w3.org/2000/svg" viewBox="0 0 44.99 44.99"><g data-name="Camada 2"><path d="M44.61.39a1.32 1.32 0 00-1.87 0L38.9 4.23a3.12 3.12 0 00-.74-.23L26.23 1a4 4 0 00-3.76 1L1.16 23.33a3.94 3.94 0 000 5.59l14.91 14.92a4 4 0 005.59 0l21.28-21.32a3.94 3.94 0 001-3.75L41 6.83a4.66 4.66 0 00-.27-.74l3.84-3.84a1.32 1.32 0 00.04-1.86zm-3.18 19a1.35 1.35 0 01-.35 1.25L19.8 42a1.32 1.32 0 01-1.87 0L3 27.06a1.33 1.33 0 010-1.87L24.34 3.91a1.28 1.28 0 01.93-.38 1.17 1.17 0 01.32 0l11.2 2.76-3.17 3.22a4 4 0 101.86 1.86l3.18-3.17zM32.85 14A1.32 1.32 0 1131 12.14a1.34 1.34 0 011.87 0 1.33 1.33 0 01-.02 1.86zm-11.19 7.47a4 4 0 10-5.59 0 4 4 0 005.59 0zm-3.73-3.73a1.32 1.32 0 110 1.86 1.32 1.32 0 010-1.86zm0 11.18a4 4 0 105.6 0 4 4 0 00-5.6 0zm3.73 3.73a1.32 1.32 0 110-1.86 1.3 1.3 0 010 1.86zM28 23l-16.74 1.82a1.31 1.31 0 00.15 2.62h.15l16.77-1.87A1.32 1.32 0 1028 23z" data-name="Camada 1"/></g></svg>