<svg xmlns="http://www.w3.org/2000/svg" viewBox="0 0 37.42 39.05"><g data-name="Camada 2"><path d="M35.61 20a1.19 1.19 0 010-1l1.46-3a3.39 3.39 0 00-1.46-4.5L32.68 10a1.13 1.13 0 01-.59-.81l-.57-3.29a3.39 3.39 0 00-3.83-2.78l-3.28.46a1.14 1.14 0 01-1-.31L21.07 1a3.38 3.38 0 00-4.72 0L14 3.27a1.14 1.14 0 01-1 .31l-3.27-.46A3.39 3.39 0 005.9 5.9l-.57 3.27a1.13 1.13 0 01-.59.81l-2.93 1.56A3.39 3.39 0 00.35 16l1.45 3a1.12 1.12 0 010 1L.35 23a3.39 3.39 0 001.46 4.5l2.93 1.55a1.16 1.16 0 01.59.82l.57 3.27A3.4 3.4 0 009.24 36a4.22 4.22 0 00.49 0l3.27-.53a1.14 1.14 0 011 .31l2.38 2.3a3.36 3.36 0 004.72 0l2.38-2.3a1.14 1.14 0 011-.31l3.28.46a3.39 3.39 0 003.83-2.78l.57-3.27a1.16 1.16 0 01.59-.82l2.93-1.55A3.39 3.39 0 0037.07 23zm-2 1l1.46 3a1.14 1.14 0 01-.5 1.52l-2.92 1.56a3.39 3.39 0 00-1.76 2.41l-.57 3.27a1.14 1.14 0 01-1.32.94l-3.28-.46a3.38 3.38 0 00-2.84.92l-2.38 2.31a1.15 1.15 0 01-1.6 0l-2.38-2.31a3.38 3.38 0 00-2.36-1 2.59 2.59 0 00-.48 0l-3.28.46a1.14 1.14 0 01-1.29-.94l-.58-3.27A3.35 3.35 0 005.78 27l-2.92-1.48A1.15 1.15 0 012.37 24l1.45-3a3.35 3.35 0 000-3l-1.45-3a1.15 1.15 0 01.49-1.52L5.79 12a3.35 3.35 0 001.75-2.45l.58-3.26a1.13 1.13 0 011.29-.94l3.28.46a3.38 3.38 0 002.84-.92l2.38-2.31a1.15 1.15 0 011.6 0l2.38 2.31a3.38 3.38 0 002.84.92L28 5.35a1.14 1.14 0 011.29.94l.57 3.26A3.39 3.39 0 0031.63 12l2.92 1.56a1.14 1.14 0 01.5 1.52l-1.46 3a3.41 3.41 0 000 2.92zm-6.68-9.7a1.12 1.12 0 00-1.59 0L10.49 26.16a1.13 1.13 0 00.8 1.92 1.11 1.11 0 00.79-.33l14.85-14.86a1.12 1.12 0 000-1.59zm-12.72 6.35a4.13 4.13 0 10-4.12-4.13 4.13 4.13 0 004.12 4.13zm0-6a1.88 1.88 0 11-1.87 1.88 1.88 1.88 0 011.87-1.89zm9 9.76a4.13 4.13 0 104.12 4.13 4.13 4.13 0 00-4.12-4.14zm0 6a1.88 1.88 0 111.87-1.88 1.88 1.88 0 01-1.87 1.88z" data-name="Camada 1"/></g></svg>