<svg xmlns="http://www.w3.org/2000/svg" viewBox="0 0 99.31 55.48"><g data-name="Camada 2"><g data-name="Camada 1"><path d="M84.57 55.48h-2.71a4.05 4.05 0 01-2.34-3.06c-2.43-9-4.92-18-7.39-27-.17-.59-.4-1.15-.72-2.07a14.59 14.59 0 00-3.17 1.71 10.87 10.87 0 01-8.69 3c-.76-.06-1.53 0-2.41 0l-.77 4.38c4 2 4.69 3.12 4.7 7.44v6.76c-.1 3.53-2.26 5.86-5.77 6-3.74.13-7.5.13-11.24 0-3.51-.13-5.68-2.47-5.78-6 0-1.93.08-3.87 0-5.8-.28-3.84.44-7.1 4.72-8.29l-.79-4.4a12.18 12.18 0 00-1.64-.08 11.74 11.74 0 01-9.78-3.21c-.71-.69-1.89-.89-3-1.37-.28.87-.47 1.41-.62 2-2.47 9-4.89 18-7.47 27-.33 1.15-1.49 2.06-2.26 3.08h-2.7c-1.71-.67-2.21-1.9-2-3.68.69-5.29 1.29-10.59 1.93-15.89.48-4 1-8.11 1.46-12.35-2.48 0-4.62-.12-6.73 0C4.75 23.9 1.58 22 0 17.59V14.5c1.57-3.1 4.31-3.86 7.52-3.5V7.64c-1.86 0-3.59.08-5.3 0A8.46 8.46 0 010 6.77V5.61a9 9 0 012.27-.77c1.72-.11 3.47 0 5.24 0 .55-2.31 1.82-3.57 4.21-3.6 3 0 3.82.44 5.24 3.6h5.19c1.06 0 2.08.14 2.1 1.4s-1 1.46-2.08 1.44H16.8v3.3c4.11.41 7.44-.69 9.44-4.38 2.5-4.67 6.35-6.66 11.57-6.6q11.91.15 23.84 0c5.14 0 8.91 2 11.4 6.51 2 3.62 5.34 5 9.46 4.28V7.64h-4.53c-1.16 0-2.83.42-2.88-1.37s1.61-1.42 2.78-1.45h4.64c.53-2.24 1.72-3.47 4-3.61 2.75-.16 4.65.74 5.27 3.61h5.35c1.07 0 2.08.17 2.07 1.44s-1.07 1.41-2.11 1.4h-5.3V11h1.89c4.31.07 6.57 3.23 5.24 7.33a7.56 7.56 0 01-7.38 5.19c-2.69.06-5.38 0-8.23 0 .24 2.73.38 5.16.66 7.58q1.23 10.34 2.58 20.67c.23 1.8-.28 3.04-1.99 3.71zM49.46 25.19c3.75 0 7.51.18 11.24-.08a9.59 9.59 0 004.92-1.77 11.55 11.55 0 017.45-2.68c6 .07 12 0 18 0a4.82 4.82 0 004.78-2.64c1.24-2.45.28-4.08-2.43-4.1-3.75 0-7.5-.1-11.24 0-5.49.16-9.59-1.89-12.22-6.85a7.7 7.7 0 00-7.15-4.19q-13.19-.08-26.37 0a7.7 7.7 0 00-7.15 4.19c-2.63 5-6.72 7-12.22 6.85-3.87-.12-7.75-.06-11.63 0-2 0-2.78 1-2.41 3 .41 2.24 2.29 3.7 5 3.71h18.61a9.23 9.23 0 016.71 2.49 7.37 7.37 0 005.46 2c3.54.05 7.1.07 10.65.07zm.15 24.52h5.42a2.85 2.85 0 003.14-3.11c0-2.7.06-5.4 0-8.1a2.83 2.83 0 00-3-3q-5.5-.11-11 0a2.77 2.77 0 00-2.93 2.94q-.1 4.14 0 8.29a2.8 2.8 0 003 3c1.76.02 3.56-.03 5.37-.02zm33.6 2.78l.51-.27q-1.81-14.28-3.63-28.55H75a1.94 1.94 0 00-.08.66q3.7 13.58 7.45 27.15c.05.39.53.67.84 1.01zm-67.69 0c.66-.16 1.15-.17 1.19-.3 2.67-9.44 5.3-18.89 8-28.47h-5.39zm38.56-24.23h-8.85c.21 1.29.32 2.38.6 3.42a1.39 1.39 0 001 .84c2.16.08 4.33 0 6.55 0zM13.75 10.93v-5.6c0-1.17-.83-1.45-1.7-1.2-.58.16-1.41.75-1.46 1.22-.17 1.82-.07 3.67-.07 5.58zm75 0c0-2 .1-3.85-.07-5.68 0-.44-1-1.1-1.52-1.11s-1.52.63-1.56 1.06c-.13 1.89-.03 3.8-.03 5.8z"/><path d="M49.64 47.42a4.86 4.86 0 01-4.88-4.9 4.9 4.9 0 019.79 0 4.84 4.84 0 01-4.91 4.9zM51.91 43v-.9c-.75-.48-1.46-1.25-2.28-1.38a1.52 1.52 0 00-1.83 1.85 2.85 2.85 0 001.88 1.85c.68.1 1.49-.88 2.23-1.42z"/></g></g></svg>