<svg xmlns="http://www.w3.org/2000/svg" viewBox="0 0 35.82 52.45"><g data-name="Camada 2"><path d="M35.72 21.24a1.9 1.9 0 00-1.28-1h-.13a1.44 1.44 0 00-.57-.07H22.41l5.35-17.38.06-.13a1.79 1.79 0 00-.63-2.4 1.83 1.83 0 00-1-.26 2.07 2.07 0 00-1.49.84l-.06.16c-3.5 3.89-7 7.77-10.51 11.72l-6.05 6.71C5.6 22.21 3.06 25 .57 27.84a2.36 2.36 0 00-.5 2.08A1.92 1.92 0 001.47 31l.13.07a1.66 1.66 0 00.57.06h10.44L8.54 47.21c-.26 1-.51 2.07-.77 3.1a2 2 0 00.83 1.88 1.73 1.73 0 00.82.26 2.09 2.09 0 00.83-.19 1.56 1.56 0 00.82-.72l21.46-24.86c1-1.1 1.91-2.2 2.8-3.3a2.54 2.54 0 00.39-2.14zm-5 3.76L10.57 48.37c.06-.26.13-.45.18-.71l4.08-16.12a2.28 2.28 0 00-.32-2.08 2.42 2.42 0 00-1.78-.9h-9.8c2.29-2.53 4.58-5 6.81-7.64l6-6.73c3-3.37 6-6.74 9-10L20 20v.13a2.35 2.35 0 00.32 1.75 2.06 2.06 0 001.72.71h10.81c-.7.79-1.4 1.57-2.1 2.41z" data-name="Camada 1"/></g></svg>