<svg xmlns="http://www.w3.org/2000/svg" viewBox="0 0 54.51 62.3"><g data-name="Camada 2"><path d="M0 21.65C1 19 2.92 18 5.7 18.15c3.12.14 6.25.05 9.37 0a3.13 3.13 0 001.57-.47Q30 9.11 43.42.46c.27-.17.58-.46.85-.46a53 53 0 016.79.16 4.18 4.18 0 013.43 4.44v40a4.51 4.51 0 01-4.45 4.68c-1.74.09-3.49.08-5.23 0a3 3 0 01-1.44-.54L16.5 31.5a2.1 2.1 0 00-1-.34h-3.83V53.3a2.35 2.35 0 00.81 1.89c1.15 1.08 2.25 2.23 3.36 3.35 1.47 1.46 1.4 2.46-.27 3.76h-1.21L9.74 58l-4.63 4.3H3.89C2.2 61 2.15 60 3.71 58.44 4.82 57.33 6 56.26 7 55.07a2.93 2.93 0 00.72-1.76V31.14a17.72 17.72 0 00-1.8 0c-2.82.29-4.86-.75-6-3.42zm42.76-16a4.9 4.9 0 00-.51.25Q31.17 13 20.09 20.15a1.63 1.63 0 00-.6 1.15c-.06 2.11 0 4.22 0 6.33a1.83 1.83 0 001 1.82c6.8 4.33 13.57 8.71 20.35 13.07l1.94 1.2zm4 39.65c.12.07.19.14.26.14h1.94c1.6 0 1.63 0 1.63-1.64V7.31c0-4 .81-3.42-3.58-3.41-.07 0-.13.07-.24.13zM15.53 22.08H4.75c-.29 0-.78.55-.82.88-.1 1 0 2-.05 3s.3 1.23 1.2 1.22h10.45z" data-name="Camada 1"/></g></svg>