<svg xmlns="http://www.w3.org/2000/svg" viewBox="0 0 53.35 50.79"><g data-name="Camada 2"><path d="M.66 50.79h11.46V16.5H.66zm49.07-31.15a12.34 12.34 0 00-9.55-3.93 13.71 13.71 0 00-4 .54 8.86 8.86 0 00-3 1.5 15 15 0 00-2 1.8 14.73 14.73 0 00-1.35 1.83V16.5H18.44v11.91c0 5.73 0 13.18-.07 22.38h11.5V31.66a8.53 8.53 0 01.38-2.81 7.33 7.33 0 012.21-3 5.6 5.6 0 013.66-1.2 4.94 4.94 0 014.39 2.06 10 10 0 011.41 5.69v18.39h11.43V31.14q0-7.57-3.62-11.5zM6.46 0a6.54 6.54 0 00-4.67 1.68A5.57 5.57 0 000 5.92a5.66 5.66 0 001.74 4.22 6.25 6.25 0 004.58 1.69h.07a6.57 6.57 0 004.71-1.69 5.49 5.49 0 001.75-4.22 5.74 5.74 0 00-1.77-4.24A6.37 6.37 0 006.46 0z" data-name="Camada 1"/></g></svg>