<svg xmlns="http://www.w3.org/2000/svg" viewBox="0 0 34 34"><g data-name="Camada 2"><path d="M25.27 34h-.06a11.13 11.13 0 01-2.41-2.13c-2.31-2.3-4.63-4.54-7-6.78-1.57 1.76-3 3.56-4.66 5.36-.24.26-1.17 1.68-1.92 1.47s-.31-1.39-.22-2.18c.25-2.66.49-5.28.77-7.71-2.49-.88-4.86-1.57-7.57-2.46-.69-.23-2.2-.51-2.2-1.2S1.25 17.25 1.81 17c10-5.42 19.77-10.58 29.65-16 .34-.26 1.74-1.24 2.3-.94s.06 1.59-.06 2.07c-2.54 10.17-5 20-7.5 30-.2.71-.35 1.87-.93 1.87zM2.36 18.2c2 .65 4 1.26 6 1.92a8 8 0 002 .65c.26 0 .74-.59 1.1-.87 4.94-4 9.46-7.65 14.36-11.54.57-.45 1.68-1.73 2.35-1.64 1.07.15.28 1.3-.05 1.75-3.88 5.26-7.76 10.53-11.4 15.58 2.51 2.42 5.17 5.05 7.61 7.49.12.12.3.36.5.33 2.5-9.91 5.11-20 7.45-29.9C22.35 7.42 12.3 12.76 2.36 18.2zm10.3 2.41c-.52.41-1.45 1-1.59 1.42a8.68 8.68 0 00-.16 1.8c-.17 1.91-.34 3.52-.55 5.36 5.33-5.25 9.54-11.91 13.92-17.93-3.76 3.01-7.76 6.29-11.62 9.35z" fill-rule="evenodd" data-name="Camada 1"/></g></svg>