<svg xmlns="http://www.w3.org/2000/svg" viewBox="0 0 65.25 52.05"><g data-name="Camada 2"><path d="M57.8 3.68H7.44a1.76 1.76 0 00-1.61 1.88v34.82a1.77 1.77 0 001.61 1.89H57.8a1.78 1.78 0 001.62-1.89V5.56a1.77 1.77 0 00-1.62-1.88zm.2 36.7a.25.25 0 01-.22.26H7.44a.24.24 0 01-.21-.26V5.56a.23.23 0 01.21-.25H57.8a.24.24 0 01.22.25zm6.2 3.12h-1.64V4.67c0-2.58-1.79-4.67-4-4.67H6.68c-2.2 0-4 2.09-4 4.67V43.5H1.05a1.14 1.14 0 00-1 1.22v3.37a3.71 3.71 0 003.39 4h58.42a3.71 3.71 0 003.39-4v-3.37a1.14 1.14 0 00-1.05-1.22zM4.78 4.67a2.08 2.08 0 011.9-2.22h51.89a2.08 2.08 0 011.89 2.22V43.5H4.78zM35.7 46v.64a.49.49 0 01-.45.52H30a.49.49 0 01-.45-.52V46zm27.45 2.14a1.42 1.42 0 01-1.29 1.51H3.39a1.42 1.42 0 01-1.3-1.51V46h26.06v.64a2 2 0 001.85 2.1h5.25a2 2 0 001.84-2.15V46h26.06z" data-name="Camada 1"/></g></svg>