<svg xmlns="http://www.w3.org/2000/svg" viewBox="0 0 53.75 55.98"><g data-name="Camada 2"><path d="M53.75 32.65v.66a6.66 6.66 0 01-1.88 3.91 6.15 6.15 0 011.88 3.65v.65a6.81 6.81 0 01-3.36 4.82c2.73 7.53-5.28 9.11-11.83 9.51a108.69 108.69 0 01-14.1-.26c-9.65-.72-15-5-24.46-4.82v-.91c.31-.31.05-1.17.13-1.7 9-.45 14.75 3.88 23.65 4.83a99.77 99.77 0 0013.71.26c4.7-.2 12.2-.66 10.48-5.87-.22-.66-.86-1.32-.67-2.08s1.57-1 2.42-1.7a3.26 3.26 0 001.21-2.86c-.2-1.44-2.66-2.07-2.69-3.39 0-1.68 3.2-1.93 2.69-5-.26-1.49-2-1.92-3.1-3.12.25-2.84 1.1-5.27-1.34-6.26-1.83-.74-5.22-.25-7.93.13-4.13.57-10.28 2.73-12.09-.91a7.13 7.13 0 01-.13-4.57c.9-3.46 4.26-6.82 3.76-11.2-.1-1.25-1.86-4.22-3.76-3.74-.85.21-.82 1.61-1.08 3A19.39 19.39 0 0121.5 14c-2.21 2.62-6.24 4.84-8.6 7.56-2 2.3-2.77 6-5 7.82-1.81 1.55-4.8 2.19-7.77 2.23-.08-.44.18-1.21-.13-1.43V29c1.52-.17 3.73-.21 5.11-.91 3.09-1.57 4-6.56 6.31-8.86 4.47-4.39 9.74-6.44 11.15-13.82.58-3 .76-5 3.09-5.34a6.13 6.13 0 016.05 3.13c4.09 6.49-3.75 12-2.69 18 2.45 1.07 5.52-.07 8.47-.52 5.62-.85 12.49-1.37 13.44 3.65.26 1.39-.46 2.52-.27 3.39s1.84 1.7 2.42 2.87a10.69 10.69 0 01.67 2.06z" fill-rule="evenodd" data-name="Camada 1"/></g></svg>