<svg xmlns="http://www.w3.org/2000/svg" viewBox="0 0 57.03 44.55"><g data-name="Camada 2"><path d="M50.4 7.26h-9.26l-.22-.93A8.41 8.41 0 0032.63 0h-8.25a8.4 8.4 0 00-8.28 6.33l-.23.93H6.62A6.51 6.51 0 000 13.63v24.22a6.84 6.84 0 007 6.7h43.07a6.84 6.84 0 007-6.7V13.63a6.51 6.51 0 00-6.67-6.37zm3.76 30.59a4 4 0 01-4.1 4H7a4 4 0 01-4.11-4V13.63A3.71 3.71 0 016.62 10H17a1.4 1.4 0 001.4-1.06l.48-2a5.58 5.58 0 015.5-4.21h8.25A5.6 5.6 0 0138.14 7l.47 2A1.43 1.43 0 0040 10h10.39a3.7 3.7 0 013.77 3.63zM9.65 14a1.84 1.84 0 101.91 1.83A1.87 1.87 0 009.65 14zm18.86.42A11.77 11.77 0 0016.54 26a11.77 11.77 0 0012 11.53A11.78 11.78 0 0040.49 26a11.78 11.78 0 00-11.98-11.55zm0 20.31A9 9 0 0119.39 26a9 9 0 019.12-8.78A9 9 0 0137.64 26a9 9 0 01-9.13 8.76z" data-name="Camada 1"/></g></svg>