<svg xmlns="http://www.w3.org/2000/svg" viewBox="0 0 43.03 53.73"><g data-name="Camada 2"><g data-name="Camada 1"><path d="M35.66 32.14a4.73 4.73 0 003.57-6.34 2 2 0 01.66-2.32 4.66 4.66 0 000-7.18 2.11 2.11 0 01-.64-2.51 4.67 4.67 0 00-3.65-6.17 2 2 0 01-1.7-1.71 4.66 4.66 0 00-6.27-3.62 1.87 1.87 0 01-2.32-.63 4.81 4.81 0 00-7.27 0 1.87 1.87 0 01-2.32.63A4.65 4.65 0 009.44 5.9a2 2 0 01-1.79 1.74 4.65 4.65 0 00-3.57 6.14 2.14 2.14 0 01-.72 2.58 4.6 4.6 0 00-.06 7 2.27 2.27 0 01.7 2.72A4.66 4.66 0 007.27 32l1.26.34c-2.84 5-5.63 10-8.53 15.06 2.28-.15 4.31-.22 6.32-.45a1.45 1.45 0 011.74 1c.86 1.91 1.83 3.76 2.82 5.76q4.21-7.42 8.22-14.46a15.77 15.77 0 002.5.48 14.36 14.36 0 002.4-.34c2.67 4.71 5.37 9.44 8.15 14.34 1-2 2-3.84 2.8-5.74a1.49 1.49 0 011.85-1c2 .2 4 .27 6.22.4-2.88-5.07-5.65-10-8.47-14.94.45-.13.78-.23 1.11-.31zM11.08 47c-.43-.87-.84-1.59-1.15-2.35a1.28 1.28 0 00-1.57-1 24 24 0 01-2.73.15l4.58-8c1.76 2 3.86 2.35 6.45 1.36zm11.83-11a1.51 1.51 0 01-2.46 0 4.87 4.87 0 00-5.74-1.57 1.57 1.57 0 01-2.22-1.38 4.76 4.76 0 00-4-4 1.6 1.6 0 01-1.37-2.31 4.82 4.82 0 00-1.52-5.56c-1-.87-.92-1.74.07-2.68a5.06 5.06 0 001.85-3.78c-.12-.54-.23-1.09-.38-1.62-.4-1.37 0-2.11 1.34-2.41a4.82 4.82 0 004-4.14 1.54 1.54 0 012.18-1.28 4.9 4.9 0 005.75-1.56 1.55 1.55 0 012.47 0 4.9 4.9 0 005.84 1.54 1.45 1.45 0 012 1.11 5.09 5.09 0 004.41 4.42 1.46 1.46 0 011.13 2 4.92 4.92 0 001.52 5.85 1.53 1.53 0 010 2.47 4.93 4.93 0 00-1.49 5.9 1.5 1.5 0 01-1.2 2 5 5 0 00-4.29 4.27 1.51 1.51 0 01-2.15 1.2A4.84 4.84 0 0022.91 36zm14.41 7.68h-2.94a1 1 0 00-1.12.66c-.37.88-.82 1.66-1.26 2.66-1.87-3.3-3.66-6.44-5.46-9.63a14.81 14.81 0 003.54.25 13.33 13.33 0 003.07-1.34z"/><path d="M32.66 20.38a11 11 0 10-11 11 11 11 0 0011-11zm-11 7.89a7.86 7.86 0 117.84-7.89 7.88 7.88 0 01-7.82 7.89z"/></g></g></svg>