<svg xmlns="http://www.w3.org/2000/svg" viewBox="0 0 62.7 51.55"><g data-name="Camada 2"><path d="M58.44 10.35h-5.73l-1.32-6A5.5 5.5 0 0046 0H26.09a5.49 5.49 0 00-5.38 4.35l-1.32 6H18V7.79a2.6 2.6 0 00-2.6-2.61H7a2.6 2.6 0 00-2.6 2.61v2.56h-.14A4.28 4.28 0 000 14.64v29A4.28 4.28 0 004.26 48H24a22.07 22.07 0 0024.1 0h10.34a4.28 4.28 0 004.26-4.29v-29a4.28 4.28 0 00-4.26-4.36zM23.1 4.89a3 3 0 013-2.42H46a3.06 3.06 0 013 2.42l1.2 5.46h-2.1a22.07 22.07 0 00-24.1 0h-2.1zM6.89 7.79A.15.15 0 017 7.64h8.39a.15.15 0 01.15.15v2.56H6.89zM9.83 45.5V32.1a1.23 1.23 0 10-2.45 0v13.4H4.26a1.82 1.82 0 01-1.81-1.82v-29a1.82 1.82 0 011.81-1.82h16.61a22.46 22.46 0 000 32.68zm37.52 0a19.58 19.58 0 01-22.61 0 20 20 0 014.77-35.15 19.58 19.58 0 0117.84 2.47 20 20 0 010 32.68zm12.9-1.82a1.82 1.82 0 01-1.81 1.82h-7.21a22.46 22.46 0 000-32.68h7.21a1.82 1.82 0 011.81 1.82zM36.05 13a16.2 16.2 0 000 32.39 15.79 15.79 0 003.82-.46 1.23 1.23 0 00-.58-2.39 13.55 13.55 0 01-3.24.39 13.7 13.7 0 1111.29-6 1.25 1.25 0 00.32 1.72 1.22 1.22 0 001.7-.33A16.22 16.22 0 0036.05 13zM8.61 17.08a4.6 4.6 0 104.56 4.6 4.58 4.58 0 00-4.56-4.6zm0 6.72a2.13 2.13 0 112.11-2.12 2.12 2.12 0 01-2.11 2.12zm37.25 17a1.51 1.51 0 00-.11-.22 1.3 1.3 0 00-.15-.18l-.19-.16-.21-.11a.88.88 0 00-.23-.07 1.29 1.29 0 00-.48 0 1 1 0 00-.23.07l-.21.11a2.05 2.05 0 00-.34.34 1.51 1.51 0 00-.11.22 1.55 1.55 0 00-.07.23 1.45 1.45 0 000 .48 1.55 1.55 0 00.07.23 1.39 1.39 0 00.11.21 1.46 1.46 0 00.16.19.84.84 0 00.18.15l.21.12.23.07h.48l.23-.07.21-.12a.9.9 0 00.19-.15 1.24 1.24 0 00.4-.84 1 1 0 000-.24.88.88 0 00-.14-.23z" data-name="Camada 1"/></g></svg>