<svg xmlns="http://www.w3.org/2000/svg" viewBox="0 0 4.68 8.86"><g data-name="Camada 2"><path d="M2.29 6.33v-.2a1.78 1.78 0 01.19-.89 3.7 3.7 0 01.78-.83 7.08 7.08 0 001-.94 2.06 2.06 0 00.34-.61 2.2 2.2 0 00.12-.76A2 2 0 004.05.55 2.51 2.51 0 002.31 0 4.89 4.89 0 000 .58l.35.79a4.63 4.63 0 011-.39 3.49 3.49 0 01.91-.11 1.7 1.7 0 011.1.32 1.14 1.14 0 01.38.93 1.63 1.63 0 01-.2.82 5.72 5.72 0 01-1 1 3.09 3.09 0 00-.78.93A2.65 2.65 0 001.54 6v.32zm-.84 2.34a.68.68 0 00.5.19.66.66 0 00.52-.21.81.81 0 00.19-.58.85.85 0 00-.18-.59.68.68 0 00-.48-.21c-.47 0-.7.27-.7.8a.75.75 0 00.15.6z" data-name="Camada 1"/></g></svg>