<svg xmlns="http://www.w3.org/2000/svg" viewBox="0 0 44 50"><g data-name="Camada 2"><path d="M14.46 16.71l3.07 3-.73 4.23a1 1 0 00.39.95.93.93 0 00.57.19 1.07 1.07 0 00.46-.11L22 23l3.79 2a.94.94 0 001-.07 1 1 0 00.39-1l-.72-4.23 3.06-3a1 1 0 00.24-1A1 1 0 0029 15l-4.24-.61-1.89-3.85A1 1 0 0022 10a1 1 0 00-.87.55l-1.9 3.85-4.23.65a1 1 0 00-.79.66 1 1 0 00.25 1zm5.54-.42a1 1 0 00.73-.54L22 13.22l1.25 2.53a.94.94 0 00.73.53l2.79.41-2 2a1 1 0 00-.28.87l.51 2.76L22.45 21a1 1 0 00-.9 0l-2.5 1.32.48-2.79a1 1 0 00-.28-.86l-2-2zm23.87 26.62l-8-14a17.71 17.71 0 10-27.66 0l-8 14a1 1 0 001 1.45l6.28-.84 2.41 5.87a1 1 0 00.83.61h.07a1 1 0 00.84-.49l8.01-14.11a17.19 17.19 0 004.68 0l8.12 14.11a1 1 0 00.84.49h.07a1 1 0 00.83-.61l2.41-5.87 6.28.84a1 1 0 00.93-.42 1 1 0 00.06-1.03zm-33 3.9l-1.79-4.27L10.66 40a1 1 0 00-.32-1.34 1 1 0 00-1.34.28l-1.59 2.6-4.61.62L9.54 30.4a17.73 17.73 0 008.09 4.6zM22 33.59a15.82 15.82 0 1115.76-15.82A15.81 15.81 0 0122 33.59zm14.59 7.95L35 38.94a1 1 0 00-1.34-.32 1 1 0 00-.32 1.38l1.58 2.58-1.76 4.27L26.37 35a17.73 17.73 0 008.09-4.6l6.74 11.76zm-3.17-18.3A12.67 12.67 0 0015.8 6.7a1 1 0 101 1.7 10.75 10.75 0 0114.91 14 1 1 0 00.45 1.3 1.06 1.06 0 00.42.09 1 1 0 00.84-.55zm-3.74 2a1 1 0 000 1.38 1 1 0 001.38 0 1 1 0 000-1.38 1 1 0 00-1.38.02zm-2.52 1.93a10.74 10.74 0 01-14.91-13.84 1 1 0 10-1.77-.81A12.67 12.67 0 0028.1 28.9a1 1 0 00-.94-1.71zM13.43 10.78a1 1 0 00.72-.31 1 1 0 00-1.43-1.33 1 1 0 000 1.38 1 1 0 00.71.26z" data-name="Camada 1"/></g></svg>