<svg xmlns="http://www.w3.org/2000/svg" viewBox="0 0 55 35"><g data-name="Camada 2"><path d="M51.15 14.84l-1.42-5.73a.88.88 0 00.68-.85v-.92a3.64 3.64 0 00-3.62-3.64H40.3V1.79A1.79 1.79 0 0038.52 0H5.45a1.79 1.79 0 00-1.78 1.79V17.5a.87.87 0 101.73 0V1.79a.06.06 0 010-.06h33.12a.06.06 0 01.06.06V17.5a.86.86 0 101.72 0v-1h10.17a2.8 2.8 0 012.67 2h-2.68a.87.87 0 00-.86.87v1.83a2.71 2.71 0 002.7 2.71h1v3.81H51a5.45 5.45 0 00-10.31 0h-.39V21.2a.86.86 0 10-1.72 0v6.52H20.71a5.45 5.45 0 00-10.31 0H5.45v-1.96h3.68a.87.87 0 000-1.73H.86a.87.87 0 000 1.73h2.81v1.91a1.79 1.79 0 001.78 1.79h4.66a.43.43 0 000 .05 5.46 5.46 0 1010.91 0v-.05h19.4v.05a5.46 5.46 0 1010.91 0 .43.43 0 000-.05h2.82a.87.87 0 00.86-.87v-9.24a4.56 4.56 0 00-3.86-4.51zM40.3 5.43h6.49a1.9 1.9 0 011.89 1.91H40.3zm0 9.36V9.13H48l1.4 5.66zM15.56 33.27a3.76 3.76 0 113.73-3.76 3.75 3.75 0 01-3.73 3.76zm30.31 0a3.76 3.76 0 113.73-3.76 3.75 3.75 0 01-3.73 3.76zm7.41-11.09h-1a1 1 0 01-1-1v-1h2zm-37.72 5.54a1.79 1.79 0 101.78 1.79 1.79 1.79 0 00-1.78-1.79zm30.31 0a1.79 1.79 0 101.78 1.79 1.79 1.79 0 00-1.78-1.79zm-23.82-2.83a.86.86 0 00.86.87h12.86a.87.87 0 000-1.73H22.91a.85.85 0 00-.86.86zM2.7 22.06h11a.87.87 0 000-1.73h-11a.87.87 0 000 1.73zm26-13.49l-7.66 7.71-4-4a.86.86 0 00-1.22 1.22l4.59 4.62a.85.85 0 001.22 0L30 9.8a.89.89 0 000-1.23.86.86 0 00-1.27 0z" data-name="Camada 1"/></g></svg>