<svg xmlns="http://www.w3.org/2000/svg" viewBox="0 0 24.04 27"><g data-name="Camada 2"><path d="M24 26.83V27h-2.37A9.85 9.85 0 0019 20.21a9.39 9.39 0 00-13.23-.62A9.53 9.53 0 002.42 27H0v-.11c.37-5.82 3.18-9.14 7.3-11.12A9 9 0 014.45 4.88 8.39 8.39 0 0112.08 0a8.21 8.21 0 017.52 4.94 8.87 8.87 0 01.66 5.33 9.32 9.32 0 01-3.52 5.5c4.12 1.97 6.92 5.28 7.26 11.06zM6.09 7.52a6.29 6.29 0 002.36 6.06A6.08 6.08 0 0018 7.8a6.52 6.52 0 00-1.64-3.48 5.77 5.77 0 00-5.11-1.8 5.91 5.91 0 00-5.16 5z" fill-rule="evenodd" data-name="Camada 1"/></g></svg>