<svg xmlns="http://www.w3.org/2000/svg" viewBox="0 0 91.56 83.64"><g data-name="Camada 2"><path d="M90.42 17.86C87.24 7.28 77.35-1.52 63.71.22c-7.89 1-13.49 6.16-17.9 11.15-5.46-5.57-11-12-22.1-11.3C12.23.78 4.7 7.55 1.6 16.45c-4 11.44.11 23.33 5 30.34 9 12.93 23.44 21.08 33.9 32.75 1.64 1.83 3.18 4.15 5.43 4.09 2.59 0 4.53-3.44 6.23-5.22 2-2 4-4 5.7-5.5 11.78-10.68 26.26-19.69 31.88-35.43a34 34 0 00.68-19.62zm-7.18 11.86c-1 7.5-5.42 13.26-9.63 17.64-9.16 9.53-19.34 16.8-27.94 26.11C36.74 62.4 21.86 54 13.4 41.57c-3-4.32-5.56-9.33-5.15-16.37C8.81 15.6 15 9 24.93 8.68c5.16-.15 9.09 3 11.79 5.37a51.64 51.64 0 014.21 4.38c1.39 1.57 2.62 3.65 4.88 3.66 2.5 0 3.41-2.15 4.75-3.66a48 48 0 014.2-4.1c2.64-2.35 6.38-5.43 11-5.65a19.14 19.14 0 019.36 2.13c5.72 3.13 9.32 9.93 8.12 18.91z" fill-rule="evenodd" data-name="Camada 1"/></g></svg>