<svg class="svg-sprites" id="skin-sprite" xmlns="http://www.w3.org/2000/svg" xmlns:xlink="http://www.w3.org/1999/xlink">
    <symbol viewBox="0 0 39 35" id="z-banana" xmlns="http://www.w3.org/2000/svg"><g data-name="Camada 2"><path d="M37.46 13.67l-1.29-2.14L34.87 7a1.21 1.21 0 000-.14L31.45.41a.76.76 0 00-.67-.41h-3.07a.76.76 0 00-.66.39.8.8 0 00-.05.43.13.13 0 000 .06v5.23l-2 2.25a13.93 13.93 0 01-3.68 2.88.77.77 0 00.36 1.44.77.77 0 00.36-.09A15.29 15.29 0 0026 9.39l2.25-2.48h.55v2.63l-1.79 3a15.86 15.86 0 01-6 5.78A15.79 15.79 0 0111.08 20l-2.76-.4a6.68 6.68 0 00-.77-.07A13.54 13.54 0 013.71 16l.85-1.11a.76.76 0 00-.14-1.07.74.74 0 00-1.06.14l-.55.71c-.44-.72-.8-1.4-1.11-2l.89-.84 1.59.58a.85.85 0 00.39 0 5 5 0 012.6.24l2.3.84a15.22 15.22 0 006.45.88.77.77 0 00-.12-1.53 13.51 13.51 0 01-5.8-.79l-2.3-.84a6.62 6.62 0 00-3.18-.34l-1.85-.67a.75.75 0 00-.78.16L.24 11.92a.76.76 0 00-.15.91c.06.13.13.26.2.39a19.5 19.5 0 005 6.56 5.34 5.34 0 00-.53.16l-2.27-.34a.74.74 0 00-.74.31L.25 22a.75.75 0 000 .92 17.75 17.75 0 005 4.22l-1 1.93a.78.78 0 00.17.91 17.53 17.53 0 003.42 2.43l.16.09a17.87 17.87 0 003.43 1.39l.69.2a23.4 23.4 0 006.47.91 23.62 23.62 0 009.53-2A20.89 20.89 0 0037 25.53l.2-.29a10.82 10.82 0 00.26-11.57zm-3-2.55l-2.1.09V8h1.2zm-4.14-9.59l2.57 5H32l-3-4.95zm.53 5.93v1.08h-.5V6.62zm-2-3.26v1.18h-.36V3.51l.36.6zM5.16 25.32l.44-.88a.76.76 0 10-1.36-.68l-.33.66a16.39 16.39 0 01-2.08-2l.89-1.24 2 .3a.74.74 0 00.39 0 6 6 0 013-.33l2.76.43a17.31 17.31 0 0017.47-8.28l1.94-3.23h.57v1.79l-1.54 3.75a15.86 15.86 0 01-14.65 9.86h-2.79a7.48 7.48 0 00-3.5.88H7a15.48 15.48 0 01-1.84-1.03zm30.76-.93l-.2.29a19.45 19.45 0 01-8.24 6.91 22.05 22.05 0 01-15 1l-.69-.2a14.62 14.62 0 01-2.62-1l.36-1a.76.76 0 10-1.44-.5l-.27.8a17.27 17.27 0 01-2-1.42l.69-1.37h2a.75.75 0 00.38-.1 5.89 5.89 0 012.98-.8h2.79a17.36 17.36 0 0016.05-10.81l1.41-3.44 2.93-.13 1.11 1.85a9.27 9.27 0 01-.24 9.92zM19 13.76a.91.91 0 00.23 0 .76.76 0 10-.45-1.46.76.76 0 00.22 1.46zM33.2 23v.06a.76.76 0 00.2 1.06.74.74 0 00.42.13.77.77 0 00.63-.33v-.07a.76.76 0 00-.2-1.06.77.77 0 00-1.05.21zm-2 2.38a16.25 16.25 0 01-5 3.44 19 19 0 01-7.16 1.62.77.77 0 000 1.53 20.6 20.6 0 007.73-1.75 17.93 17.93 0 005.46-3.76.76.76 0 00-1.08-1.08z" data-name="Camada 1"/></g></symbol>
    <symbol viewBox="0 0 74.83 69.29" id="z-blog" xmlns="http://www.w3.org/2000/svg"><g data-name="Camada 2"><path d="M28 49.63a32.33 32.33 0 009-1.4 29.68 29.68 0 008.33-4 30.55 30.55 0 009.17-10.17l.46-.92a47.35 47.35 0 002.06-5c.14-.4.26-.88.39-1.39a12.42 12.42 0 012.25-5l-.61-5.86a7.87 7.87 0 01.41-3.44 5.69 5.69 0 012.9-3.34 3.12 3.12 0 011.34-.3h.07c.11 0 .71 0 1.56.11.33-2 .7-4.28.74-4.5C65.29 1.73 60 .08 59.78 0a3.41 3.41 0 00-2.33 3l-1.21 7.38h-.06a3.11 3.11 0 00-.47.21 8 8 0 00-3.09 3.54c-.28.5-.57 1-.89 1.47a49.06 49.06 0 01-3.54 4.54c-.27.31-.51.59-.76.86a33.61 33.61 0 01-12.78 8.13 34.31 34.31 0 01-22.46 0c-.47-.16-.95-.33-1.41-.51s-1.14-.46-1.78-.69a13.16 13.16 0 00-4.1-.83 5.11 5.11 0 00-2.53.6 4.24 4.24 0 00-1.63 1.66c-1.58 2.86-.36 5.18 1.19 7.27a26.19 26.19 0 004.79 4.95A37.86 37.86 0 0018 47.69a37.29 37.29 0 0010 1.94zm46.34-23.26a5.69 5.69 0 00-2.53-3.82l-.83-8c-1.08-1.76-4.32-2.33-6.09-2.51h-.08C64.14 12 63.7 12 63.7 12c-1.21.56-1.61 2.3-1.48 3.54L63 23a3.61 3.61 0 00-.39.33 8.12 8.12 0 00-2.06 4.26c-.14.55-.29 1.12-.47 1.65a51 51 0 01-2.21 5.32c-.18.37-.34.7-.51 1a34.51 34.51 0 01-3.37 5c0 .06-.11.12-.16.19l-.17.2a33.59 33.59 0 01-6.46 5.89 34.14 34.14 0 01-19.57 6q-1 0-2.07-.06-.75 0-1.5-.12c-.54 0-1.22-.12-1.93-.16h-1.26c-1.81 0-3.91.28-5.22 1.6a4.23 4.23 0 00-1.11 2c-.78 3.19 1 5.12 3.08 6.73a26 26 0 005.94 3.5A37.8 37.8 0 0036 69.23c.72 0 1.45.06 2.17.06a36.42 36.42 0 0023-8.1 37.16 37.16 0 0013.17-34.82z" data-name="Camada 1"/></g></symbol>
    <symbol viewBox="0 0 54.61 59.04" id="z-box" xmlns="http://www.w3.org/2000/svg"><g data-name="Camada 2"><path d="M54.58 13.92a1.52 1.52 0 00-.15-.66 1.45 1.45 0 00-1-.8L27.92.15a1.53 1.53 0 00-1.32 0L.85 12.57a1.52 1.52 0 00-.85 1.3V45.1a1.49 1.49 0 00.85 1.35L26.6 58.87a.34.34 0 01.11 0h.46a.44.44 0 00.16 0h.39l26.03-12.46a1.5 1.5 0 00.86-1.34V14s-.03-.07-.03-.08zM27.25 3.15l22.34 10.78-8.23 4L19 7.13zm0 21.56L4.92 13.93l10.67-5.15 22.33 10.78zM3 16.34l22.75 11v27.79L3 44.16zm25.76 38.79V27.31l10.67-5.16v7.28a1.51 1.51 0 003 0V20.7l9.14-4.41v27.82z" data-name="Camada 1"/></g></symbol>
    <symbol viewBox="0 0 21.51 25.71" id="z-cart" xmlns="http://www.w3.org/2000/svg"><g data-name="Camada 2"><path d="M20.33 6.43h-4.17V5.36a5.35 5.35 0 10-10.7 0v5.35H7.6V8.57h4.28V6.43H7.6V5.36a3.21 3.21 0 116.42 0v5.35h2.14V8.57h2.25l1 15h-17l.86-15h.11V6.43h-2L0 25.71h21.51z" data-name="Camada 1"/></g></symbol>
    <symbol viewBox="0 0 36 36" id="z-change" xmlns="http://www.w3.org/2000/svg"><g data-name="Camada 2"><path d="M17.91 3a14.77 14.77 0 019.66 3.57h-1.38a1.5 1.5 0 000 3h4.93a1.5 1.5 0 001.5-1.5V3.13a1.5 1.5 0 10-3 0v1.25A17.74 17.74 0 0017.91 0 18 18 0 000 18a1.5 1.5 0 003 0A15 15 0 0117.91 3zM34.5 16.53A1.5 1.5 0 0033 18a15 15 0 01-14.91 15 14.79 14.79 0 01-9.57-3.49H10a1.5 1.5 0 100-3H4.71l-.15.05h-.13l-.12.06-.14.09-.07.06L4 27l-.09.11-.09.12-.07.13-.06.13v.14a.7.7 0 000 .14.88.88 0 000 .16V33a1.5 1.5 0 003 0v-1.2a17.7 17.7 0 0011.4 4.2A18 18 0 0036 18a1.5 1.5 0 00-1.5-1.47z" data-name="Camada 1"/></g></symbol>
    <symbol viewBox="0 0 64.79 64.82" id="z-click" xmlns="http://www.w3.org/2000/svg"><g data-name="Camada 2"><path d="M35.18 64.82h-5.57a5 5 0 00-.84-.22A32.32 32.32 0 011.23 41.12C.69 39.19.4 37.18 0 35.2v-5.57c.16-.9.34-1.81.48-2.72C3.26 9.92 19.71-2.16 36.71.32a32.36 32.36 0 016.78 62.48 81.85 81.85 0 01-8.31 2.02zm-2.75-22.67c1.56 0 3.12.06 4.68 0a2 2 0 001.35-.79q2.43-4 4.68-8.09a1.89 1.89 0 000-1.56 230 230 0 00-4.74-8.21 1.81 1.81 0 00-1.26-.74c-3.16-.06-6.33-.06-9.49 0a1.89 1.89 0 00-1.35.78q-2.43 4-4.68 8.09a1.91 1.91 0 000 1.57c1.52 2.77 3.11 5.5 4.74 8.2a1.79 1.79 0 001.26.74c1.6.06 3.2.01 4.81.01zm24.46-23.6v-.32c-.18-.33-.37-.67-.57-1a28.33 28.33 0 00-18-12.53 1.22 1.22 0 00-1.6.69c-2.31 4.07-4.66 8.11-7 12.16-.16.28-.27.58-.46 1zM7.74 46.27c.29.52.47.89.69 1.23A28.35 28.35 0 0026.5 60.12a1.19 1.19 0 001.58-.72c2.32-4.06 4.67-8.1 7-12.16.15-.27.26-.57.44-1zm24.2 14.53c9.15-.19 16.43-3.55 22.2-10.22L46 36.47zM18.82 28.36L32.85 4a28.7 28.7 0 00-22.19 10.2zM8.15 18a5 5 0 00-.41.57 27.74 27.74 0 00-2.25 22.7c.26.8.7.9 1.4.9h14c.31 0 .63-.07 1.09-.12zm34.56 4.7l13.95 24.14c.23-.32.34-.45.42-.59a27.81 27.81 0 002.26-22.58 1.25 1.25 0 00-1.46-1H47.39z" data-name="Camada 1"/></g></symbol>
    <symbol viewBox="0 0 56.64 55.38" id="z-clients" xmlns="http://www.w3.org/2000/svg"><g data-name="Camada 2"><path d="M11.43 22.3c0 1.92-.15 3.71 1.4 4.2 1 .31 2.79.08 4.38.08H44c2.56 0 4.82.42 5.6-1.2.67-1.37.27-4.22.27-5.91V7.29c0-3.17.74-7.14-2.28-7.29h-34c-3 .12-2.19 4.27-2.19 7.37zm2.19-19.81c0-.12 0-.25.09-.26h33.91v22.21h-34zm23.31 2.23c-1.54-.67-3.91-.26-5.61-.26a53.41 53.41 0 00-6.05.08 2.65 2.65 0 00-2.54 2.32C22.3 10.68 27.08 10 30.62 10c2.07 0 4.42.38 6.05-.09a2.79 2.79 0 00.26-5.19zM34 7.8h-3.12c-2.17 0-4.4.2-5.87-.25-.06-.46 0-.75.35-.86H34c.79 0 2.23-.22 2.36.43.13.88-1.36.68-2.36.68zm15.81 26.67c-.31-2.54-4.19-2.75-6.4-1.54-.35 0-.37-.58-.52-.77-1-1.38-3.94-1.14-5.7-.43a56.57 56.57 0 00-6.57 3.77c-.65.4-1.6 1.24-2.1 1.29a8.14 8.14 0 01-3.07-1c-1.1-.6-1.91-1.94-2.89-2.66A12.05 12.05 0 0015.29 31c-3.42 0-5.82 1.15-8.59 2.32-1.13.47-2.34 1.06-3.77 1.71-.74.34-3.27 1.07-2.89 2.49.32 1.19 1.88.42 3-.09 1.37-.63 1.85-.83 3.06-1.37a38.77 38.77 0 016.23-2.57 13.54 13.54 0 017.62.6c1.93 1 2.34 2.42 4 3.43 2.77 1.65 6.79 2 10.87 2.4 1.32.14 2.68.42 2.62 1.72-.07 1.65-2.42 1.54-4.82 1.54a49.84 49.84 0 01-10.25-.6c-1.28-.27-3-.83-3.06.6 0 1.07 1.63 1.37 2.89 1.63a57.85 57.85 0 0012.79.6 7.42 7.42 0 004.21-1.72c2-1.34 4.24-2.78 6.22-4.11 1.8-1.21 4-3.25 6.74-3.69 1.15-.18 2.16 0 2.28.94.14 1.1-1.49 2.2-2.28 2.75-6 4.18-12 8.05-18.22 11.75-1.37.81-2.5 1.77-4.21 1.88A9.15 9.15 0 0125 51.88c-2.86-1.39-5.1-2.61-8-4-1.4-.74-3.15-1.88-5-1.57a9.13 9.13 0 00-3.33 1.63c-.77.47-2.61 1.2-2.55 2.31.12 2.17 2.85.14 3.6-.34a7 7 0 012.71-1.46c1.49-.15 3.54 1.26 4.91 2 1.59.82 2.88 1.47 4.56 2.32 2.92 1.47 6.31 3.72 10.42 2.06a42.89 42.89 0 006.31-3.69c4.18-2.64 7.9-5.14 12.1-7.89 2.25-1.48 5.46-2.92 6-5.92v-.6c-.25-3.09-4.51-3.81-6.92-2.26zM37 36.87c-.47.32-1 .87-1.41 1-1.19.22-2.49-.32-3.85-.35 2.35-1.06 4.76-3.78 7.71-4.11.62-.07 1.66-.13 1.84.51A29.83 29.83 0 0137 36.87zm8.58-.08c-2 1.3-4.09 2.9-6 3.94a3.14 3.14 0 00-1.32-1.88c1.23-1 2.75-1.93 4.21-2.92 1.28-.86 3.17-2.15 5.17-1.2.28 1.12-1.29 1.57-2.04 2.06z" data-name="Camada 1"/></g></symbol>
    <symbol viewBox="0 0 44.99 44.99" id="z-cupom" xmlns="http://www.w3.org/2000/svg"><g data-name="Camada 2"><path d="M44.61.39a1.32 1.32 0 00-1.87 0L38.9 4.23a3.12 3.12 0 00-.74-.23L26.23 1a4 4 0 00-3.76 1L1.16 23.33a3.94 3.94 0 000 5.59l14.91 14.92a4 4 0 005.59 0l21.28-21.32a3.94 3.94 0 001-3.75L41 6.83a4.66 4.66 0 00-.27-.74l3.84-3.84a1.32 1.32 0 00.04-1.86zm-3.18 19a1.35 1.35 0 01-.35 1.25L19.8 42a1.32 1.32 0 01-1.87 0L3 27.06a1.33 1.33 0 010-1.87L24.34 3.91a1.28 1.28 0 01.93-.38 1.17 1.17 0 01.32 0l11.2 2.76-3.17 3.22a4 4 0 101.86 1.86l3.18-3.17zM32.85 14A1.32 1.32 0 1131 12.14a1.34 1.34 0 011.87 0 1.33 1.33 0 01-.02 1.86zm-11.19 7.47a4 4 0 10-5.59 0 4 4 0 005.59 0zm-3.73-3.73a1.32 1.32 0 110 1.86 1.32 1.32 0 010-1.86zm0 11.18a4 4 0 105.6 0 4 4 0 00-5.6 0zm3.73 3.73a1.32 1.32 0 110-1.86 1.3 1.3 0 010 1.86zM28 23l-16.74 1.82a1.31 1.31 0 00.15 2.62h.15l16.77-1.87A1.32 1.32 0 1028 23z" data-name="Camada 1"/></g></symbol>
    <symbol viewBox="0 0 37.42 39.05" id="z-discont" xmlns="http://www.w3.org/2000/svg"><g data-name="Camada 2"><path d="M35.61 20a1.19 1.19 0 010-1l1.46-3a3.39 3.39 0 00-1.46-4.5L32.68 10a1.13 1.13 0 01-.59-.81l-.57-3.29a3.39 3.39 0 00-3.83-2.78l-3.28.46a1.14 1.14 0 01-1-.31L21.07 1a3.38 3.38 0 00-4.72 0L14 3.27a1.14 1.14 0 01-1 .31l-3.27-.46A3.39 3.39 0 005.9 5.9l-.57 3.27a1.13 1.13 0 01-.59.81l-2.93 1.56A3.39 3.39 0 00.35 16l1.45 3a1.12 1.12 0 010 1L.35 23a3.39 3.39 0 001.46 4.5l2.93 1.55a1.16 1.16 0 01.59.82l.57 3.27A3.4 3.4 0 009.24 36a4.22 4.22 0 00.49 0l3.27-.53a1.14 1.14 0 011 .31l2.38 2.3a3.36 3.36 0 004.72 0l2.38-2.3a1.14 1.14 0 011-.31l3.28.46a3.39 3.39 0 003.83-2.78l.57-3.27a1.16 1.16 0 01.59-.82l2.93-1.55A3.39 3.39 0 0037.07 23zm-2 1l1.46 3a1.14 1.14 0 01-.5 1.52l-2.92 1.56a3.39 3.39 0 00-1.76 2.41l-.57 3.27a1.14 1.14 0 01-1.32.94l-3.28-.46a3.38 3.38 0 00-2.84.92l-2.38 2.31a1.15 1.15 0 01-1.6 0l-2.38-2.31a3.38 3.38 0 00-2.36-1 2.59 2.59 0 00-.48 0l-3.28.46a1.14 1.14 0 01-1.29-.94l-.58-3.27A3.35 3.35 0 005.78 27l-2.92-1.48A1.15 1.15 0 012.37 24l1.45-3a3.35 3.35 0 000-3l-1.45-3a1.15 1.15 0 01.49-1.52L5.79 12a3.35 3.35 0 001.75-2.45l.58-3.26a1.13 1.13 0 011.29-.94l3.28.46a3.38 3.38 0 002.84-.92l2.38-2.31a1.15 1.15 0 011.6 0l2.38 2.31a3.38 3.38 0 002.84.92L28 5.35a1.14 1.14 0 011.29.94l.57 3.26A3.39 3.39 0 0031.63 12l2.92 1.56a1.14 1.14 0 01.5 1.52l-1.46 3a3.41 3.41 0 000 2.92zm-6.68-9.7a1.12 1.12 0 00-1.59 0L10.49 26.16a1.13 1.13 0 00.8 1.92 1.11 1.11 0 00.79-.33l14.85-14.86a1.12 1.12 0 000-1.59zm-12.72 6.35a4.13 4.13 0 10-4.12-4.13 4.13 4.13 0 004.12 4.13zm0-6a1.88 1.88 0 11-1.87 1.88 1.88 1.88 0 011.87-1.89zm9 9.76a4.13 4.13 0 104.12 4.13 4.13 4.13 0 00-4.12-4.14zm0 6a1.88 1.88 0 111.87-1.88 1.88 1.88 0 01-1.87 1.88z" data-name="Camada 1"/></g></symbol>
    <symbol viewBox="0 0 65.37 37.42" id="z-down" xmlns="http://www.w3.org/2000/svg"><g data-name="Camada 2"><path d="M32.69 37.42a2.24 2.24 0 001.5-.64l30.53-30a2.22 2.22 0 00.65-1.48 2.18 2.18 0 00-.65-1.48L61.44.64a2.09 2.09 0 00-3 0L32.69 25.91 6.94.64A2.29 2.29 0 005.44 0a2.17 2.17 0 00-1.51.64L.66 3.86A2.15 2.15 0 000 5.34a2.19 2.19 0 00.66 1.48l30.52 30a2.24 2.24 0 001.51.6z" data-name="Camada 1"/></g></symbol>
    <symbol viewBox="0 0 99.31 55.48" id="z-drone" xmlns="http://www.w3.org/2000/svg"><g data-name="Camada 2"><g data-name="Camada 1"><path d="M84.57 55.48h-2.71a4.05 4.05 0 01-2.34-3.06c-2.43-9-4.92-18-7.39-27-.17-.59-.4-1.15-.72-2.07a14.59 14.59 0 00-3.17 1.71 10.87 10.87 0 01-8.69 3c-.76-.06-1.53 0-2.41 0l-.77 4.38c4 2 4.69 3.12 4.7 7.44v6.76c-.1 3.53-2.26 5.86-5.77 6-3.74.13-7.5.13-11.24 0-3.51-.13-5.68-2.47-5.78-6 0-1.93.08-3.87 0-5.8-.28-3.84.44-7.1 4.72-8.29l-.79-4.4a12.18 12.18 0 00-1.64-.08 11.74 11.74 0 01-9.78-3.21c-.71-.69-1.89-.89-3-1.37-.28.87-.47 1.41-.62 2-2.47 9-4.89 18-7.47 27-.33 1.15-1.49 2.06-2.26 3.08h-2.7c-1.71-.67-2.21-1.9-2-3.68.69-5.29 1.29-10.59 1.93-15.89.48-4 1-8.11 1.46-12.35-2.48 0-4.62-.12-6.73 0C4.75 23.9 1.58 22 0 17.59V14.5c1.57-3.1 4.31-3.86 7.52-3.5V7.64c-1.86 0-3.59.08-5.3 0A8.46 8.46 0 010 6.77V5.61a9 9 0 012.27-.77c1.72-.11 3.47 0 5.24 0 .55-2.31 1.82-3.57 4.21-3.6 3 0 3.82.44 5.24 3.6h5.19c1.06 0 2.08.14 2.1 1.4s-1 1.46-2.08 1.44H16.8v3.3c4.11.41 7.44-.69 9.44-4.38 2.5-4.67 6.35-6.66 11.57-6.6q11.91.15 23.84 0c5.14 0 8.91 2 11.4 6.51 2 3.62 5.34 5 9.46 4.28V7.64h-4.53c-1.16 0-2.83.42-2.88-1.37s1.61-1.42 2.78-1.45h4.64c.53-2.24 1.72-3.47 4-3.61 2.75-.16 4.65.74 5.27 3.61h5.35c1.07 0 2.08.17 2.07 1.44s-1.07 1.41-2.11 1.4h-5.3V11h1.89c4.31.07 6.57 3.23 5.24 7.33a7.56 7.56 0 01-7.38 5.19c-2.69.06-5.38 0-8.23 0 .24 2.73.38 5.16.66 7.58q1.23 10.34 2.58 20.67c.23 1.8-.28 3.04-1.99 3.71zM49.46 25.19c3.75 0 7.51.18 11.24-.08a9.59 9.59 0 004.92-1.77 11.55 11.55 0 017.45-2.68c6 .07 12 0 18 0a4.82 4.82 0 004.78-2.64c1.24-2.45.28-4.08-2.43-4.1-3.75 0-7.5-.1-11.24 0-5.49.16-9.59-1.89-12.22-6.85a7.7 7.7 0 00-7.15-4.19q-13.19-.08-26.37 0a7.7 7.7 0 00-7.15 4.19c-2.63 5-6.72 7-12.22 6.85-3.87-.12-7.75-.06-11.63 0-2 0-2.78 1-2.41 3 .41 2.24 2.29 3.7 5 3.71h18.61a9.23 9.23 0 016.71 2.49 7.37 7.37 0 005.46 2c3.54.05 7.1.07 10.65.07zm.15 24.52h5.42a2.85 2.85 0 003.14-3.11c0-2.7.06-5.4 0-8.1a2.83 2.83 0 00-3-3q-5.5-.11-11 0a2.77 2.77 0 00-2.93 2.94q-.1 4.14 0 8.29a2.8 2.8 0 003 3c1.76.02 3.56-.03 5.37-.02zm33.6 2.78l.51-.27q-1.81-14.28-3.63-28.55H75a1.94 1.94 0 00-.08.66q3.7 13.58 7.45 27.15c.05.39.53.67.84 1.01zm-67.69 0c.66-.16 1.15-.17 1.19-.3 2.67-9.44 5.3-18.89 8-28.47h-5.39zm38.56-24.23h-8.85c.21 1.29.32 2.38.6 3.42a1.39 1.39 0 001 .84c2.16.08 4.33 0 6.55 0zM13.75 10.93v-5.6c0-1.17-.83-1.45-1.7-1.2-.58.16-1.41.75-1.46 1.22-.17 1.82-.07 3.67-.07 5.58zm75 0c0-2 .1-3.85-.07-5.68 0-.44-1-1.1-1.52-1.11s-1.52.63-1.56 1.06c-.13 1.89-.03 3.8-.03 5.8z"/><path d="M49.64 47.42a4.86 4.86 0 01-4.88-4.9 4.9 4.9 0 019.79 0 4.84 4.84 0 01-4.91 4.9zM51.91 43v-.9c-.75-.48-1.46-1.25-2.28-1.38a1.52 1.52 0 00-1.83 1.85 2.85 2.85 0 001.88 1.85c.68.1 1.49-.88 2.23-1.42z"/></g></g></symbol>
    <symbol viewBox="0 0 35.82 52.45" id="z-flash" xmlns="http://www.w3.org/2000/svg"><g data-name="Camada 2"><path d="M35.72 21.24a1.9 1.9 0 00-1.28-1h-.13a1.44 1.44 0 00-.57-.07H22.41l5.35-17.38.06-.13a1.79 1.79 0 00-.63-2.4 1.83 1.83 0 00-1-.26 2.07 2.07 0 00-1.49.84l-.06.16c-3.5 3.89-7 7.77-10.51 11.72l-6.05 6.71C5.6 22.21 3.06 25 .57 27.84a2.36 2.36 0 00-.5 2.08A1.92 1.92 0 001.47 31l.13.07a1.66 1.66 0 00.57.06h10.44L8.54 47.21c-.26 1-.51 2.07-.77 3.1a2 2 0 00.83 1.88 1.73 1.73 0 00.82.26 2.09 2.09 0 00.83-.19 1.56 1.56 0 00.82-.72l21.46-24.86c1-1.1 1.91-2.2 2.8-3.3a2.54 2.54 0 00.39-2.14zm-5 3.76L10.57 48.37c.06-.26.13-.45.18-.71l4.08-16.12a2.28 2.28 0 00-.32-2.08 2.42 2.42 0 00-1.78-.9h-9.8c2.29-2.53 4.58-5 6.81-7.64l6-6.73c3-3.37 6-6.74 9-10L20 20v.13a2.35 2.35 0 00.32 1.75 2.06 2.06 0 001.72.71h10.81c-.7.79-1.4 1.57-2.1 2.41z" data-name="Camada 1"/></g></symbol>
    <symbol viewBox="0 0 37.19 35.24" id="z-heart" xmlns="http://www.w3.org/2000/svg"><g data-name="Camada 2"><path d="M34.19 3.27a9.79 9.79 0 00-14.56 0l-1 1.1-1-1.12A9.92 9.92 0 0010.28 0 9.88 9.88 0 003 3.25a11.38 11.38 0 00-3 7.85 11.46 11.46 0 003 7.84l14.81 16a1 1 0 001.49 0L34.17 19a11.44 11.44 0 003-7.85 11.41 11.41 0 00-2.98-7.88z" data-name="Camada 1"/></g></symbol>
    <symbol viewBox="0 0 40.21 40.25" id="z-last" xmlns="http://www.w3.org/2000/svg"><g data-name="Camada 2"><path d="M22.35 0l-2.23 2.52 15.62 17.6-15.62 17.61 2.23 2.52L38 22.64l2.24-2.52zM0 2.52l15.62 17.6L0 37.73l2.23 2.52 17.86-20.13L2.23 0z" data-name="Camada 1"/></g></symbol>
    <symbol viewBox="0 0 34 34" id="z-less" xmlns="http://www.w3.org/2000/svg"><g data-name="Camada 2"><path d="M17 0a17 17 0 1017 17A17 17 0 0017 0zm0 31.77A14.77 14.77 0 1131.77 17 14.79 14.79 0 0117 31.77zm6.76-15.88H10.24a1.12 1.12 0 000 2.23h13.52a1.11 1.11 0 100-2.22z" data-name="Camada 1"/></g></symbol>
    <symbol viewBox="0 0 54.51 62.3" id="z-light" xmlns="http://www.w3.org/2000/svg"><g data-name="Camada 2"><path d="M0 21.65C1 19 2.92 18 5.7 18.15c3.12.14 6.25.05 9.37 0a3.13 3.13 0 001.57-.47Q30 9.11 43.42.46c.27-.17.58-.46.85-.46a53 53 0 016.79.16 4.18 4.18 0 013.43 4.44v40a4.51 4.51 0 01-4.45 4.68c-1.74.09-3.49.08-5.23 0a3 3 0 01-1.44-.54L16.5 31.5a2.1 2.1 0 00-1-.34h-3.83V53.3a2.35 2.35 0 00.81 1.89c1.15 1.08 2.25 2.23 3.36 3.35 1.47 1.46 1.4 2.46-.27 3.76h-1.21L9.74 58l-4.63 4.3H3.89C2.2 61 2.15 60 3.71 58.44 4.82 57.33 6 56.26 7 55.07a2.93 2.93 0 00.72-1.76V31.14a17.72 17.72 0 00-1.8 0c-2.82.29-4.86-.75-6-3.42zm42.76-16a4.9 4.9 0 00-.51.25Q31.17 13 20.09 20.15a1.63 1.63 0 00-.6 1.15c-.06 2.11 0 4.22 0 6.33a1.83 1.83 0 001 1.82c6.8 4.33 13.57 8.71 20.35 13.07l1.94 1.2zm4 39.65c.12.07.19.14.26.14h1.94c1.6 0 1.63 0 1.63-1.64V7.31c0-4 .81-3.42-3.58-3.41-.07 0-.13.07-.24.13zM15.53 22.08H4.75c-.29 0-.78.55-.82.88-.1 1 0 2-.05 3s.3 1.23 1.2 1.22h10.45z" data-name="Camada 1"/></g></symbol>
    <symbol viewBox="0 0 53.35 50.79" id="z-linkedin" xmlns="http://www.w3.org/2000/svg"><g data-name="Camada 2"><path d="M.66 50.79h11.46V16.5H.66zm49.07-31.15a12.34 12.34 0 00-9.55-3.93 13.71 13.71 0 00-4 .54 8.86 8.86 0 00-3 1.5 15 15 0 00-2 1.8 14.73 14.73 0 00-1.35 1.83V16.5H18.44v11.91c0 5.73 0 13.18-.07 22.38h11.5V31.66a8.53 8.53 0 01.38-2.81 7.33 7.33 0 012.21-3 5.6 5.6 0 013.66-1.2 4.94 4.94 0 014.39 2.06 10 10 0 011.41 5.69v18.39h11.43V31.14q0-7.57-3.62-11.5zM6.46 0a6.54 6.54 0 00-4.67 1.68A5.57 5.57 0 000 5.92a5.66 5.66 0 001.74 4.22 6.25 6.25 0 004.58 1.69h.07a6.57 6.57 0 004.71-1.69 5.49 5.49 0 001.75-4.22 5.74 5.74 0 00-1.77-4.24A6.37 6.37 0 006.46 0z" data-name="Camada 1"/></g></symbol>
    <symbol viewBox="0 0 57.34 57.36" id="z-lupa" xmlns="http://www.w3.org/2000/svg"><g data-name="Camada 2"><path d="M39.69 24.27A15.44 15.44 0 1124.26 8.82a15.45 15.45 0 0115.43 15.45zM57.34 53a4.45 4.45 0 00-1.28-3.1L44.24 38A24.24 24.24 0 1038 44.26l11.83 11.79a4.29 4.29 0 003.1 1.31A4.44 4.44 0 0057.34 53z" data-name="Camada 1"/></g></symbol>
    <symbol viewBox="0 0 41.53 29.33" id="z-menu" xmlns="http://www.w3.org/2000/svg"><g data-name="Camada 2"><path d="M0 29.33h4.92v-4.89H0zM9.68 0v4.89h31.85V0zm0 17.11h31.85v-4.89H9.68zm0 12.22h31.85v-4.89H9.68zM0 17.11h4.92v-4.89H0zM0 4.89h4.92V0H0z" data-name="Camada 1"/></g></symbol>
    <symbol viewBox="0 0 42 42" id="z-more" xmlns="http://www.w3.org/2000/svg"><g data-name="Camada 2"><path d="M21 0a21 21 0 1021 21A21 21 0 0021 0zm0 39.25A18.25 18.25 0 1139.25 21 18.27 18.27 0 0121 39.25zm8.35-19.63h-7v-7a1.38 1.38 0 00-2.76 0v7h-7a1.38 1.38 0 000 2.76h7v7a1.38 1.38 0 002.76 0v-7h7a1.38 1.38 0 000-2.76z" data-name="Camada 1"/></g></symbol>
    <symbol viewBox="0 0 34 34" id="z-news" xmlns="http://www.w3.org/2000/svg"><g data-name="Camada 2"><path d="M25.27 34h-.06a11.13 11.13 0 01-2.41-2.13c-2.31-2.3-4.63-4.54-7-6.78-1.57 1.76-3 3.56-4.66 5.36-.24.26-1.17 1.68-1.92 1.47s-.31-1.39-.22-2.18c.25-2.66.49-5.28.77-7.71-2.49-.88-4.86-1.57-7.57-2.46-.69-.23-2.2-.51-2.2-1.2S1.25 17.25 1.81 17c10-5.42 19.77-10.58 29.65-16 .34-.26 1.74-1.24 2.3-.94s.06 1.59-.06 2.07c-2.54 10.17-5 20-7.5 30-.2.71-.35 1.87-.93 1.87zM2.36 18.2c2 .65 4 1.26 6 1.92a8 8 0 002 .65c.26 0 .74-.59 1.1-.87 4.94-4 9.46-7.65 14.36-11.54.57-.45 1.68-1.73 2.35-1.64 1.07.15.28 1.3-.05 1.75-3.88 5.26-7.76 10.53-11.4 15.58 2.51 2.42 5.17 5.05 7.61 7.49.12.12.3.36.5.33 2.5-9.91 5.11-20 7.45-29.9C22.35 7.42 12.3 12.76 2.36 18.2zm10.3 2.41c-.52.41-1.45 1-1.59 1.42a8.68 8.68 0 00-.16 1.8c-.17 1.91-.34 3.52-.55 5.36 5.33-5.25 9.54-11.91 13.92-17.93-3.76 3.01-7.76 6.29-11.62 9.35z" fill-rule="evenodd" data-name="Camada 1"/></g></symbol>
    <symbol viewBox="0 0 20 32.93" id="z-next" xmlns="http://www.w3.org/2000/svg"><g data-name="Camada 2"><path d="M20 16.47a1.1 1.1 0 00-.35-.76L3.64.33A1.17 1.17 0 002.85 0a1.22 1.22 0 00-.79.33L.34 2a1.13 1.13 0 00-.34.74 1.15 1.15 0 00.34.76l13.51 13L.34 29.44a1.11 1.11 0 00-.34.75 1.06 1.06 0 00.34.81l1.72 1.6a1.22 1.22 0 00.79.33 1.17 1.17 0 00.79-.33l16-15.37a1.12 1.12 0 00.36-.76z" data-name="Camada 1"/></g></symbol>
    <symbol viewBox="0 0 65.25 52.05" id="z-notebook" xmlns="http://www.w3.org/2000/svg"><g data-name="Camada 2"><path d="M57.8 3.68H7.44a1.76 1.76 0 00-1.61 1.88v34.82a1.77 1.77 0 001.61 1.89H57.8a1.78 1.78 0 001.62-1.89V5.56a1.77 1.77 0 00-1.62-1.88zm.2 36.7a.25.25 0 01-.22.26H7.44a.24.24 0 01-.21-.26V5.56a.23.23 0 01.21-.25H57.8a.24.24 0 01.22.25zm6.2 3.12h-1.64V4.67c0-2.58-1.79-4.67-4-4.67H6.68c-2.2 0-4 2.09-4 4.67V43.5H1.05a1.14 1.14 0 00-1 1.22v3.37a3.71 3.71 0 003.39 4h58.42a3.71 3.71 0 003.39-4v-3.37a1.14 1.14 0 00-1.05-1.22zM4.78 4.67a2.08 2.08 0 011.9-2.22h51.89a2.08 2.08 0 011.89 2.22V43.5H4.78zM35.7 46v.64a.49.49 0 01-.45.52H30a.49.49 0 01-.45-.52V46zm27.45 2.14a1.42 1.42 0 01-1.29 1.51H3.39a1.42 1.42 0 01-1.3-1.51V46h26.06v.64a2 2 0 001.85 2.1h5.25a2 2 0 001.84-2.15V46h26.06z" data-name="Camada 1"/></g></symbol>
    <symbol viewBox="0 0 53.75 55.98" id="z-ok" xmlns="http://www.w3.org/2000/svg"><g data-name="Camada 2"><path d="M53.75 32.65v.66a6.66 6.66 0 01-1.88 3.91 6.15 6.15 0 011.88 3.65v.65a6.81 6.81 0 01-3.36 4.82c2.73 7.53-5.28 9.11-11.83 9.51a108.69 108.69 0 01-14.1-.26c-9.65-.72-15-5-24.46-4.82v-.91c.31-.31.05-1.17.13-1.7 9-.45 14.75 3.88 23.65 4.83a99.77 99.77 0 0013.71.26c4.7-.2 12.2-.66 10.48-5.87-.22-.66-.86-1.32-.67-2.08s1.57-1 2.42-1.7a3.26 3.26 0 001.21-2.86c-.2-1.44-2.66-2.07-2.69-3.39 0-1.68 3.2-1.93 2.69-5-.26-1.49-2-1.92-3.1-3.12.25-2.84 1.1-5.27-1.34-6.26-1.83-.74-5.22-.25-7.93.13-4.13.57-10.28 2.73-12.09-.91a7.13 7.13 0 01-.13-4.57c.9-3.46 4.26-6.82 3.76-11.2-.1-1.25-1.86-4.22-3.76-3.74-.85.21-.82 1.61-1.08 3A19.39 19.39 0 0121.5 14c-2.21 2.62-6.24 4.84-8.6 7.56-2 2.3-2.77 6-5 7.82-1.81 1.55-4.8 2.19-7.77 2.23-.08-.44.18-1.21-.13-1.43V29c1.52-.17 3.73-.21 5.11-.91 3.09-1.57 4-6.56 6.31-8.86 4.47-4.39 9.74-6.44 11.15-13.82.58-3 .76-5 3.09-5.34a6.13 6.13 0 016.05 3.13c4.09 6.49-3.75 12-2.69 18 2.45 1.07 5.52-.07 8.47-.52 5.62-.85 12.49-1.37 13.44 3.65.26 1.39-.46 2.52-.27 3.39s1.84 1.7 2.42 2.87a10.69 10.69 0 01.67 2.06z" fill-rule="evenodd" data-name="Camada 1"/></g></symbol>
    <symbol viewBox="0 0 37.25 57.8" id="z-phone" xmlns="http://www.w3.org/2000/svg"><g data-name="Camada 2"><path d="M35.92 19.27a1.35 1.35 0 00-1.34 1.36v8.48a16.13 16.13 0 01-16 16.26 16.13 16.13 0 01-16-16.26v-8.48a1.34 1.34 0 00-1.33-1.36A1.35 1.35 0 000 20.63v8.48A18.86 18.86 0 0017.29 48v7h-6.88a1.36 1.36 0 000 2.72h16.43a1.36 1.36 0 000-2.72H20v-7a18.87 18.87 0 0017.3-18.93v-8.44a1.35 1.35 0 00-1.38-1.36zm-18.18 22h1.77A11.15 11.15 0 0030.55 30V11.25A11.16 11.16 0 0019.51 0h-1.77a11.16 11.16 0 00-11 11.25V30a11.15 11.15 0 0011 11.26zm-3.55-13.52H9.36V24h4.83a1.36 1.36 0 000-2.72H9.36v-3.79h4.83a1.36 1.36 0 000-2.72H9.36v-3.52a8.56 8.56 0 014.75-7.69v3.83a1.33 1.33 0 102.66 0V2.77h3.71v4.62a1.33 1.33 0 102.66 0V3.56a8.56 8.56 0 014.75 7.69v3.52h-4.83a1.36 1.36 0 000 2.72h4.83v3.77h-4.83a1.36 1.36 0 000 2.72h4.83v3.77h-4.83a1.36 1.36 0 000 2.72h4.81a8.45 8.45 0 01-8.36 8.08h-1.77a8.46 8.46 0 01-8.37-8.08h4.82a1.36 1.36 0 000-2.72z" data-name="Camada 1"/></g></symbol>
    <symbol viewBox="0 0 57.03 44.55" id="z-photo" xmlns="http://www.w3.org/2000/svg"><g data-name="Camada 2"><path d="M50.4 7.26h-9.26l-.22-.93A8.41 8.41 0 0032.63 0h-8.25a8.4 8.4 0 00-8.28 6.33l-.23.93H6.62A6.51 6.51 0 000 13.63v24.22a6.84 6.84 0 007 6.7h43.07a6.84 6.84 0 007-6.7V13.63a6.51 6.51 0 00-6.67-6.37zm3.76 30.59a4 4 0 01-4.1 4H7a4 4 0 01-4.11-4V13.63A3.71 3.71 0 016.62 10H17a1.4 1.4 0 001.4-1.06l.48-2a5.58 5.58 0 015.5-4.21h8.25A5.6 5.6 0 0138.14 7l.47 2A1.43 1.43 0 0040 10h10.39a3.7 3.7 0 013.77 3.63zM9.65 14a1.84 1.84 0 101.91 1.83A1.87 1.87 0 009.65 14zm18.86.42A11.77 11.77 0 0016.54 26a11.77 11.77 0 0012 11.53A11.78 11.78 0 0040.49 26a11.78 11.78 0 00-11.98-11.55zm0 20.31A9 9 0 0119.39 26a9 9 0 019.12-8.78A9 9 0 0137.64 26a9 9 0 01-9.13 8.76z" data-name="Camada 1"/></g></symbol>
    <symbol viewBox="0 0 43.03 53.73" id="z-premium" xmlns="http://www.w3.org/2000/svg"><g data-name="Camada 2"><g data-name="Camada 1"><path d="M35.66 32.14a4.73 4.73 0 003.57-6.34 2 2 0 01.66-2.32 4.66 4.66 0 000-7.18 2.11 2.11 0 01-.64-2.51 4.67 4.67 0 00-3.65-6.17 2 2 0 01-1.7-1.71 4.66 4.66 0 00-6.27-3.62 1.87 1.87 0 01-2.32-.63 4.81 4.81 0 00-7.27 0 1.87 1.87 0 01-2.32.63A4.65 4.65 0 009.44 5.9a2 2 0 01-1.79 1.74 4.65 4.65 0 00-3.57 6.14 2.14 2.14 0 01-.72 2.58 4.6 4.6 0 00-.06 7 2.27 2.27 0 01.7 2.72A4.66 4.66 0 007.27 32l1.26.34c-2.84 5-5.63 10-8.53 15.06 2.28-.15 4.31-.22 6.32-.45a1.45 1.45 0 011.74 1c.86 1.91 1.83 3.76 2.82 5.76q4.21-7.42 8.22-14.46a15.77 15.77 0 002.5.48 14.36 14.36 0 002.4-.34c2.67 4.71 5.37 9.44 8.15 14.34 1-2 2-3.84 2.8-5.74a1.49 1.49 0 011.85-1c2 .2 4 .27 6.22.4-2.88-5.07-5.65-10-8.47-14.94.45-.13.78-.23 1.11-.31zM11.08 47c-.43-.87-.84-1.59-1.15-2.35a1.28 1.28 0 00-1.57-1 24 24 0 01-2.73.15l4.58-8c1.76 2 3.86 2.35 6.45 1.36zm11.83-11a1.51 1.51 0 01-2.46 0 4.87 4.87 0 00-5.74-1.57 1.57 1.57 0 01-2.22-1.38 4.76 4.76 0 00-4-4 1.6 1.6 0 01-1.37-2.31 4.82 4.82 0 00-1.52-5.56c-1-.87-.92-1.74.07-2.68a5.06 5.06 0 001.85-3.78c-.12-.54-.23-1.09-.38-1.62-.4-1.37 0-2.11 1.34-2.41a4.82 4.82 0 004-4.14 1.54 1.54 0 012.18-1.28 4.9 4.9 0 005.75-1.56 1.55 1.55 0 012.47 0 4.9 4.9 0 005.84 1.54 1.45 1.45 0 012 1.11 5.09 5.09 0 004.41 4.42 1.46 1.46 0 011.13 2 4.92 4.92 0 001.52 5.85 1.53 1.53 0 010 2.47 4.93 4.93 0 00-1.49 5.9 1.5 1.5 0 01-1.2 2 5 5 0 00-4.29 4.27 1.51 1.51 0 01-2.15 1.2A4.84 4.84 0 0022.91 36zm14.41 7.68h-2.94a1 1 0 00-1.12.66c-.37.88-.82 1.66-1.26 2.66-1.87-3.3-3.66-6.44-5.46-9.63a14.81 14.81 0 003.54.25 13.33 13.33 0 003.07-1.34z"/><path d="M32.66 20.38a11 11 0 10-11 11 11 11 0 0011-11zm-11 7.89a7.86 7.86 0 117.84-7.89 7.88 7.88 0 01-7.82 7.89z"/></g></g></symbol>
    <symbol viewBox="0 0 20 32.93" id="z-prev" xmlns="http://www.w3.org/2000/svg"><g data-name="Camada 2"><path d="M0 16.47a1.15 1.15 0 00.34.76l16 15.37a1.12 1.12 0 001.59 0l1.72-1.6a1 1 0 000-1.51l-13.5-13 13.5-13a1.12 1.12 0 00.35-.75 1 1 0 00-.35-.74L17.94.33a1.12 1.12 0 00-1.59 0L.34 15.71a1.13 1.13 0 00-.34.76z" data-name="Camada 1"/></g></symbol>
    <symbol viewBox="0 0 62.7 51.55" id="z-profission" xmlns="http://www.w3.org/2000/svg"><g data-name="Camada 2"><path d="M58.44 10.35h-5.73l-1.32-6A5.5 5.5 0 0046 0H26.09a5.49 5.49 0 00-5.38 4.35l-1.32 6H18V7.79a2.6 2.6 0 00-2.6-2.61H7a2.6 2.6 0 00-2.6 2.61v2.56h-.14A4.28 4.28 0 000 14.64v29A4.28 4.28 0 004.26 48H24a22.07 22.07 0 0024.1 0h10.34a4.28 4.28 0 004.26-4.29v-29a4.28 4.28 0 00-4.26-4.36zM23.1 4.89a3 3 0 013-2.42H46a3.06 3.06 0 013 2.42l1.2 5.46h-2.1a22.07 22.07 0 00-24.1 0h-2.1zM6.89 7.79A.15.15 0 017 7.64h8.39a.15.15 0 01.15.15v2.56H6.89zM9.83 45.5V32.1a1.23 1.23 0 10-2.45 0v13.4H4.26a1.82 1.82 0 01-1.81-1.82v-29a1.82 1.82 0 011.81-1.82h16.61a22.46 22.46 0 000 32.68zm37.52 0a19.58 19.58 0 01-22.61 0 20 20 0 014.77-35.15 19.58 19.58 0 0117.84 2.47 20 20 0 010 32.68zm12.9-1.82a1.82 1.82 0 01-1.81 1.82h-7.21a22.46 22.46 0 000-32.68h7.21a1.82 1.82 0 011.81 1.82zM36.05 13a16.2 16.2 0 000 32.39 15.79 15.79 0 003.82-.46 1.23 1.23 0 00-.58-2.39 13.55 13.55 0 01-3.24.39 13.7 13.7 0 1111.29-6 1.25 1.25 0 00.32 1.72 1.22 1.22 0 001.7-.33A16.22 16.22 0 0036.05 13zM8.61 17.08a4.6 4.6 0 104.56 4.6 4.58 4.58 0 00-4.56-4.6zm0 6.72a2.13 2.13 0 112.11-2.12 2.12 2.12 0 01-2.11 2.12zm37.25 17a1.51 1.51 0 00-.11-.22 1.3 1.3 0 00-.15-.18l-.19-.16-.21-.11a.88.88 0 00-.23-.07 1.29 1.29 0 00-.48 0 1 1 0 00-.23.07l-.21.11a2.05 2.05 0 00-.34.34 1.51 1.51 0 00-.11.22 1.55 1.55 0 00-.07.23 1.45 1.45 0 000 .48 1.55 1.55 0 00.07.23 1.39 1.39 0 00.11.21 1.46 1.46 0 00.16.19.84.84 0 00.18.15l.21.12.23.07h.48l.23-.07.21-.12a.9.9 0 00.19-.15 1.24 1.24 0 00.4-.84 1 1 0 000-.24.88.88 0 00-.14-.23z" data-name="Camada 1"/></g></symbol>
    <symbol viewBox="0 0 57.98 3.41" id="z-qty-less" xmlns="http://www.w3.org/2000/svg"><g data-name="Camada 2"><path d="M58 0v3.41H0V0z" fill-rule="evenodd" data-name="Camada 1"/></g></symbol>
    <symbol viewBox="0 0 67.36 67.36" id="z-qty-more" xmlns="http://www.w3.org/2000/svg"><g data-name="Camada 2"><path fill-rule="evenodd" d="M35.66 31.7V0H31.7v31.7H0v3.96h31.7v31.7h3.96v-31.7h31.7V31.7h-31.7z" data-name="Camada 1"/></g></symbol>
    <symbol viewBox="0 0 4.68 8.86" id="z-question" xmlns="http://www.w3.org/2000/svg"><g data-name="Camada 2"><path d="M2.29 6.33v-.2a1.78 1.78 0 01.19-.89 3.7 3.7 0 01.78-.83 7.08 7.08 0 001-.94 2.06 2.06 0 00.34-.61 2.2 2.2 0 00.12-.76A2 2 0 004.05.55 2.51 2.51 0 002.31 0 4.89 4.89 0 000 .58l.35.79a4.63 4.63 0 011-.39 3.49 3.49 0 01.91-.11 1.7 1.7 0 011.1.32 1.14 1.14 0 01.38.93 1.63 1.63 0 01-.2.82 5.72 5.72 0 01-1 1 3.09 3.09 0 00-.78.93A2.65 2.65 0 001.54 6v.32zm-.84 2.34a.68.68 0 00.5.19.66.66 0 00.52-.21.81.81 0 00.19-.58.85.85 0 00-.18-.59.68.68 0 00-.48-.21c-.47 0-.7.27-.7.8a.75.75 0 00.15.6z" data-name="Camada 1"/></g></symbol>
    <symbol viewBox="0 0 33 33" id="z-search" xmlns="http://www.w3.org/2000/svg"><g data-name="Camada 2"><path d="M16.5 0A16.5 16.5 0 1033 16.5 16.5 16.5 0 0016.5 0zm8.17 17.37L18 24.16a1.14 1.14 0 01-1.62 0 1.17 1.17 0 010-1.63l5-5H9a1 1 0 010-2h12.32l-5-5a1.17 1.17 0 010-1.63 1.14 1.14 0 011.62 0l6.72 6.79a1.31 1.31 0 010 1.74z" fill-rule="evenodd" data-name="Camada 1"/></g></symbol>
    <symbol viewBox="0 0 44 50" id="z-security" xmlns="http://www.w3.org/2000/svg"><g data-name="Camada 2"><path d="M14.46 16.71l3.07 3-.73 4.23a1 1 0 00.39.95.93.93 0 00.57.19 1.07 1.07 0 00.46-.11L22 23l3.79 2a.94.94 0 001-.07 1 1 0 00.39-1l-.72-4.23 3.06-3a1 1 0 00.24-1A1 1 0 0029 15l-4.24-.61-1.89-3.85A1 1 0 0022 10a1 1 0 00-.87.55l-1.9 3.85-4.23.65a1 1 0 00-.79.66 1 1 0 00.25 1zm5.54-.42a1 1 0 00.73-.54L22 13.22l1.25 2.53a.94.94 0 00.73.53l2.79.41-2 2a1 1 0 00-.28.87l.51 2.76L22.45 21a1 1 0 00-.9 0l-2.5 1.32.48-2.79a1 1 0 00-.28-.86l-2-2zm23.87 26.62l-8-14a17.71 17.71 0 10-27.66 0l-8 14a1 1 0 001 1.45l6.28-.84 2.41 5.87a1 1 0 00.83.61h.07a1 1 0 00.84-.49l8.01-14.11a17.19 17.19 0 004.68 0l8.12 14.11a1 1 0 00.84.49h.07a1 1 0 00.83-.61l2.41-5.87 6.28.84a1 1 0 00.93-.42 1 1 0 00.06-1.03zm-33 3.9l-1.79-4.27L10.66 40a1 1 0 00-.32-1.34 1 1 0 00-1.34.28l-1.59 2.6-4.61.62L9.54 30.4a17.73 17.73 0 008.09 4.6zM22 33.59a15.82 15.82 0 1115.76-15.82A15.81 15.81 0 0122 33.59zm14.59 7.95L35 38.94a1 1 0 00-1.34-.32 1 1 0 00-.32 1.38l1.58 2.58-1.76 4.27L26.37 35a17.73 17.73 0 008.09-4.6l6.74 11.76zm-3.17-18.3A12.67 12.67 0 0015.8 6.7a1 1 0 101 1.7 10.75 10.75 0 0114.91 14 1 1 0 00.45 1.3 1.06 1.06 0 00.42.09 1 1 0 00.84-.55zm-3.74 2a1 1 0 000 1.38 1 1 0 001.38 0 1 1 0 000-1.38 1 1 0 00-1.38.02zm-2.52 1.93a10.74 10.74 0 01-14.91-13.84 1 1 0 10-1.77-.81A12.67 12.67 0 0028.1 28.9a1 1 0 00-.94-1.71zM13.43 10.78a1 1 0 00.72-.31 1 1 0 00-1.43-1.33 1 1 0 000 1.38 1 1 0 00.71.26z" data-name="Camada 1"/></g></symbol>
    <symbol viewBox="0 0 55 35" id="z-truck" xmlns="http://www.w3.org/2000/svg"><g data-name="Camada 2"><path d="M51.15 14.84l-1.42-5.73a.88.88 0 00.68-.85v-.92a3.64 3.64 0 00-3.62-3.64H40.3V1.79A1.79 1.79 0 0038.52 0H5.45a1.79 1.79 0 00-1.78 1.79V17.5a.87.87 0 101.73 0V1.79a.06.06 0 010-.06h33.12a.06.06 0 01.06.06V17.5a.86.86 0 101.72 0v-1h10.17a2.8 2.8 0 012.67 2h-2.68a.87.87 0 00-.86.87v1.83a2.71 2.71 0 002.7 2.71h1v3.81H51a5.45 5.45 0 00-10.31 0h-.39V21.2a.86.86 0 10-1.72 0v6.52H20.71a5.45 5.45 0 00-10.31 0H5.45v-1.96h3.68a.87.87 0 000-1.73H.86a.87.87 0 000 1.73h2.81v1.91a1.79 1.79 0 001.78 1.79h4.66a.43.43 0 000 .05 5.46 5.46 0 1010.91 0v-.05h19.4v.05a5.46 5.46 0 1010.91 0 .43.43 0 000-.05h2.82a.87.87 0 00.86-.87v-9.24a4.56 4.56 0 00-3.86-4.51zM40.3 5.43h6.49a1.9 1.9 0 011.89 1.91H40.3zm0 9.36V9.13H48l1.4 5.66zM15.56 33.27a3.76 3.76 0 113.73-3.76 3.75 3.75 0 01-3.73 3.76zm30.31 0a3.76 3.76 0 113.73-3.76 3.75 3.75 0 01-3.73 3.76zm7.41-11.09h-1a1 1 0 01-1-1v-1h2zm-37.72 5.54a1.79 1.79 0 101.78 1.79 1.79 1.79 0 00-1.78-1.79zm30.31 0a1.79 1.79 0 101.78 1.79 1.79 1.79 0 00-1.78-1.79zm-23.82-2.83a.86.86 0 00.86.87h12.86a.87.87 0 000-1.73H22.91a.85.85 0 00-.86.86zM2.7 22.06h11a.87.87 0 000-1.73h-11a.87.87 0 000 1.73zm26-13.49l-7.66 7.71-4-4a.86.86 0 00-1.22 1.22l4.59 4.62a.85.85 0 001.22 0L30 9.8a.89.89 0 000-1.23.86.86 0 00-1.27 0z" data-name="Camada 1"/></g></symbol>
    <symbol viewBox="0 0 24.04 27" id="z-user" xmlns="http://www.w3.org/2000/svg"><g data-name="Camada 2"><path d="M24 26.83V27h-2.37A9.85 9.85 0 0019 20.21a9.39 9.39 0 00-13.23-.62A9.53 9.53 0 002.42 27H0v-.11c.37-5.82 3.18-9.14 7.3-11.12A9 9 0 014.45 4.88 8.39 8.39 0 0112.08 0a8.21 8.21 0 017.52 4.94 8.87 8.87 0 01.66 5.33 9.32 9.32 0 01-3.52 5.5c4.12 1.97 6.92 5.28 7.26 11.06zM6.09 7.52a6.29 6.29 0 002.36 6.06A6.08 6.08 0 0018 7.8a6.52 6.52 0 00-1.64-3.48 5.77 5.77 0 00-5.11-1.8 5.91 5.91 0 00-5.16 5z" fill-rule="evenodd" data-name="Camada 1"/></g></symbol>
    <symbol viewBox="0 0 91.56 83.64" id="z-wishlist" xmlns="http://www.w3.org/2000/svg"><g data-name="Camada 2"><path d="M90.42 17.86C87.24 7.28 77.35-1.52 63.71.22c-7.89 1-13.49 6.16-17.9 11.15-5.46-5.57-11-12-22.1-11.3C12.23.78 4.7 7.55 1.6 16.45c-4 11.44.11 23.33 5 30.34 9 12.93 23.44 21.08 33.9 32.75 1.64 1.83 3.18 4.15 5.43 4.09 2.59 0 4.53-3.44 6.23-5.22 2-2 4-4 5.7-5.5 11.78-10.68 26.26-19.69 31.88-35.43a34 34 0 00.68-19.62zm-7.18 11.86c-1 7.5-5.42 13.26-9.63 17.64-9.16 9.53-19.34 16.8-27.94 26.11C36.74 62.4 21.86 54 13.4 41.57c-3-4.32-5.56-9.33-5.15-16.37C8.81 15.6 15 9 24.93 8.68c5.16-.15 9.09 3 11.79 5.37a51.64 51.64 0 014.21 4.38c1.39 1.57 2.62 3.65 4.88 3.66 2.5 0 3.41-2.15 4.75-3.66a48 48 0 014.2-4.1c2.64-2.35 6.38-5.43 11-5.65a19.14 19.14 0 019.36 2.13c5.72 3.13 9.32 9.93 8.12 18.91z" fill-rule="evenodd" data-name="Camada 1"/></g></symbol>
    <symbol viewBox="0 0 45.9 46.99" id="z-zoom" xmlns="http://www.w3.org/2000/svg"><g data-name="Camada 2"><path d="M45 41.42l-8-8a20.53 20.53 0 10-4.78 4.46L40.33 46A3.26 3.26 0 1045 41.42zM20.67 37A16.32 16.32 0 1137 20.67 16.32 16.32 0 0120.67 37z" fill-rule="evenodd" data-name="Camada 1"/></g></symbol>
</svg>